<?xml version="1.0" standalone="no"?>
<!DOCTYPE svg PUBLIC "-//W3C//DTD SVG 20010904//EN"
 "http://www.w3.org/TR/2001/REC-SVG-20010904/DTD/svg10.dtd">
<svg version="1.0" xmlns="http://www.w3.org/2000/svg"
 width="700.000000pt" height="700.000000pt" viewBox="0 0 700.000000 700.000000"
 preserveAspectRatio="xMidYMid meet">
<metadata>
Created by potrace 1.11, written by Peter Selinger 2001-2013
</metadata>
<g transform="translate(0.000000,700.000000) scale(0.100000,-0.100000)"
fill="#000000" stroke="none">
<path d="M3298 6995 c-2 -1 -48 -6 -102 -9 -55 -4 -102 -8 -105 -10 -3 -2 -35
-7 -70 -10 -35 -4 -85 -11 -110 -16 -25 -5 -57 -12 -71 -14 -185 -34 -440
-107 -606 -174 -27 -11 -74 -30 -104 -42 -95 -38 -310 -150 -440 -228 -250
-151 -467 -322 -683 -542 -467 -475 -777 -1044 -923 -1695 -19 -84 -42 -211
-49 -275 -3 -25 -7 -54 -10 -66 -18 -84 -26 -521 -12 -700 26 -336 110 -694
239 -1014 53 -130 169 -370 213 -440 14 -22 25 -42 25 -44 0 -10 161 -247 225
-331 104 -137 158 -197 310 -350 156 -156 166 -166 315 -284 91 -73 362 -261
376 -261 2 0 22 -11 43 -24 122 -78 415 -210 620 -280 192 -66 491 -137 643
-152 35 -3 65 -7 68 -9 16 -9 230 -20 410 -20 278 0 350 6 610 51 609 104
1190 380 1679 799 63 54 316 309 372 375 473 556 768 1261 827 1975 13 161 4
677 -13 705 -1 3 -6 32 -9 65 -6 63 -9 76 -32 195 -23 114 -24 119 -39 179
-111 449 -332 906 -614 1271 -36 47 -68 87 -71 90 -3 3 -37 43 -77 90 -123
146 -333 343 -513 482 -102 78 -295 208 -310 208 -5 0 -10 5 -10 10 0 6 -5 10
-10 10 -6 0 -29 12 -52 26 -66 42 -290 151 -416 203 -282 115 -619 203 -912
236 -30 4 -68 8 -85 11 -34 5 -522 14 -527 9z m-492 -2579 c113 -23 219 -60
217 -77 -1 -12 -55 -190 -68 -227 -4 -10 -12 -9 -37 5 -18 9 -35 18 -38 18 -3
1 -14 5 -25 9 -37 15 -50 18 -125 31 -97 17 -277 13 -355 -9 -282 -78 -452
-313 -460 -638 -11 -413 240 -703 615 -714 124 -3 241 15 357 56 l83 28 9 -36
c9 -36 21 -94 23 -109 1 -5 8 -28 15 -53 12 -40 12 -46 -3 -57 -20 -15 -196
-70 -249 -78 -22 -4 -65 -10 -95 -15 -100 -15 -326 -5 -420 19 -341 87 -561
319 -637 671 -24 113 -24 354 0 457 61 261 184 445 387 580 115 76 261 132
390 149 25 3 46 7 48 9 10 9 301 -6 368 -19z m1629 9 c65 -10 234 -57 250 -69
12 -9 8 -29 -26 -133 l-40 -123 -31 16 c-34 18 -102 43 -133 50 -11 2 -31 7
-45 10 -14 2 -73 7 -131 11 -365 20 -630 -193 -688 -552 -16 -99 -6 -258 24
-358 29 -100 42 -128 96 -208 165 -245 493 -322 846 -199 l83 29 5 -22 c3 -12
17 -67 30 -122 22 -90 23 -101 9 -112 -29 -22 -209 -72 -309 -87 -125 -19
-343 -15 -438 8 -361 87 -589 331 -662 706 -11 56 -14 301 -5 350 4 25 11 59
14 75 29 163 116 331 236 455 145 150 307 234 530 274 75 13 304 14 385 1z
m836 -1407 c88 -30 140 -102 145 -203 6 -146 -72 -248 -203 -261 -146 -16
-255 104 -239 261 10 104 57 170 143 201 47 16 110 18 154 2z"/>
</g>
</svg>
