<?xml version="1.0" encoding="utf-8"?>
<!-- Generator: Adobe Illustrator 19.1.0, SVG Export Plug-In . SVG Version: 6.00 Build 0)  -->
<svg version="1.1" xmlns="http://www.w3.org/2000/svg" xmlns:xlink="http://www.w3.org/1999/xlink" x="0px" y="0px"
	 viewBox="0 0 232 105" style="enable-background:new 0 0 232 105;" xml:space="preserve">
<style type="text/css">
	.st0{display:none;}
	.st1{fill:#2D2E33;}
	.st2{fill:#FFFFFF;}
	.st3{opacity:0.1;enable-background:new    ;}
	.st4{fill:#FF0000;}
	.st5{fill:#25408E;}
	.st6{clip-path:url(#SVGID_2_);}
	.st7{fill:#F3C51F;}
	.st8{fill:#F2F2F2;}
	.st9{fill:#F2C41F;}
	.st10{display:none;fill:none;}
	.st11{font-family:'Gotham-Bold';}
	.st12{font-size:17.5632px;}
	.st13{font-size:12.6725px;}
	.st14{font-size:10.8622px;}
	.st15{fill:none;stroke:#F2F2F2;stroke-miterlimit:10;}
	.st16{fill:#231F20;}
	.st17{clip-path:url(#SVGID_6_);}
	.st18{clip-path:url(#SVGID_8_);}
	.st19{opacity:0.6;clip-path:url(#SVGID_12_);}
	.st20{clip-path:url(#SVGID_14_);fill:#F3C51F;}
	.st21{clip-path:url(#SVGID_16_);}
	.st22{clip-path:url(#SVGID_18_);}
	.st23{clip-path:url(#SVGID_20_);}
	.st24{opacity:0.6;clip-path:url(#SVGID_22_);}
	.st25{clip-path:url(#SVGID_24_);fill:#F3C51F;}
	.st26{clip-path:url(#SVGID_26_);}
	.st27{clip-path:url(#SVGID_28_);}
	.st28{clip-path:url(#SVGID_30_);}
	.st29{opacity:0.6;clip-path:url(#SVGID_32_);}
	.st30{clip-path:url(#SVGID_34_);fill:#F3C51F;}
	.st31{clip-path:url(#SVGID_36_);}
	.st32{clip-path:url(#SVGID_38_);}
	.st33{opacity:0.6;clip-path:url(#SVGID_40_);}
	.st34{clip-path:url(#SVGID_42_);fill:#F3C51F;}
	.st35{clip-path:url(#SVGID_44_);}
	.st36{clip-path:url(#SVGID_46_);}
	.st37{opacity:0.6;clip-path:url(#SVGID_48_);}
	.st38{clip-path:url(#SVGID_50_);fill:#F3C51F;}
	.st39{clip-path:url(#SVGID_52_);}
	.st40{clip-path:url(#SVGID_54_);}
	.st41{display:inline;}
	.st42{display:inline;opacity:0.6;clip-path:url(#SVGID_56_);}
	.st43{clip-path:url(#SVGID_58_);fill:#F3C51F;}
	.st44{clip-path:url(#SVGID_60_);}
	.st45{opacity:0.6;clip-path:url(#SVGID_60_);}
	.st46{clip-path:url(#SVGID_62_);fill:#F3C51F;}
	.st47{clip-path:url(#SVGID_64_);}
	.st48{clip-path:url(#SVGID_66_);}
	.st49{opacity:0.6;clip-path:url(#SVGID_70_);}
	.st50{clip-path:url(#SVGID_72_);fill:#F3C51F;}
	.st51{display:inline;clip-path:url(#SVGID_74_);}
	.st52{clip-path:url(#SVGID_76_);}
	.st53{opacity:0.6;clip-path:url(#SVGID_80_);}
	.st54{clip-path:url(#SVGID_82_);fill:#F3C51F;}
	.st55{display:inline;opacity:0.6;clip-path:url(#SVGID_84_);}
	.st56{clip-path:url(#SVGID_86_);fill:#F3C51F;}
	.st57{clip-path:url(#SVGID_88_);}
	.st58{clip-path:url(#SVGID_90_);}
	.st59{clip-path:url(#SVGID_92_);}
	.st60{opacity:0.6;clip-path:url(#SVGID_94_);}
	.st61{clip-path:url(#SVGID_96_);fill:#F3C51F;}
	.st62{clip-path:url(#SVGID_98_);}
	.st63{clip-path:url(#SVGID_100_);}
	.st64{opacity:0.6;clip-path:url(#SVGID_104_);}
	.st65{clip-path:url(#SVGID_106_);fill:#F3C51F;}
	.st66{clip-path:url(#SVGID_108_);}
	.st67{opacity:0.6;clip-path:url(#SVGID_108_);}
	.st68{clip-path:url(#SVGID_110_);fill:#F3C51F;}
	.st69{clip-path:url(#SVGID_112_);}
	.st70{clip-path:url(#SVGID_114_);}
	.st71{opacity:0.6;clip-path:url(#SVGID_118_);}
	.st72{clip-path:url(#SVGID_120_);fill:#F3C51F;}
	.st73{clip-path:url(#SVGID_122_);}
	.st74{clip-path:url(#SVGID_124_);}
	.st75{opacity:0.6;clip-path:url(#SVGID_128_);}
	.st76{clip-path:url(#SVGID_130_);fill:#F3C51F;}
	.st77{clip-path:url(#SVGID_132_);}
	.st78{clip-path:url(#SVGID_134_);}
	.st79{opacity:0.6;clip-path:url(#SVGID_138_);}
	.st80{clip-path:url(#SVGID_140_);fill:#F3C51F;}
	.st81{clip-path:url(#SVGID_142_);}
	.st82{clip-path:url(#SVGID_144_);}
	.st83{opacity:0.6;clip-path:url(#SVGID_148_);}
	.st84{clip-path:url(#SVGID_150_);fill:#F3C51F;}
	.st85{clip-path:url(#SVGID_152_);}
	.st86{clip-path:url(#SVGID_154_);}
	.st87{opacity:0.6;clip-path:url(#SVGID_156_);}
	.st88{clip-path:url(#SVGID_158_);fill:#F3C51F;}
	.st89{clip-path:url(#SVGID_160_);}
	.st90{clip-path:url(#SVGID_162_);}
	.st91{opacity:0.6;clip-path:url(#SVGID_166_);}
	.st92{clip-path:url(#SVGID_168_);fill:#F3C51F;}
	.st93{clip-path:url(#SVGID_170_);}
	.st94{clip-path:url(#SVGID_172_);}
	.st95{opacity:0.6;clip-path:url(#SVGID_176_);}
	.st96{clip-path:url(#SVGID_178_);fill:#F3C51F;}
	.st97{clip-path:url(#SVGID_180_);}
	.st98{clip-path:url(#SVGID_182_);}
	.st99{opacity:0.6;clip-path:url(#SVGID_184_);}
	.st100{clip-path:url(#SVGID_186_);fill:#F3C51F;}
	.st101{clip-path:url(#SVGID_188_);}
	.st102{clip-path:url(#SVGID_190_);}
	.st103{clip-path:url(#SVGID_192_);}
	.st104{opacity:0.6;clip-path:url(#SVGID_194_);}
	.st105{clip-path:url(#SVGID_196_);fill:#F3C51F;}
	.st106{opacity:0.27;clip-path:url(#SVGID_200_);}
	.st107{clip-path:url(#SVGID_202_);fill:#0C0C0E;}
	.st108{fill:none;stroke:#25408E;stroke-width:2.8453;}
	.st109{opacity:0.27;clip-path:url(#SVGID_206_);}
	.st110{clip-path:url(#SVGID_208_);fill:#0C0C0E;}
	.st111{opacity:0.27;clip-path:url(#SVGID_212_);}
	.st112{clip-path:url(#SVGID_214_);fill:#0C0C0E;}
	.st113{fill:none;stroke:#25408E;stroke-width:5.6905;}
	.st114{clip-path:url(#SVGID_216_);fill:#25408E;}
	.st115{opacity:0.85;clip-path:url(#SVGID_218_);}
	.st116{clip-path:url(#SVGID_220_);fill:#F3C51F;}
	.st117{clip-path:url(#SVGID_218_);}
</style>
<g id="Guides" class="st0">
</g>
<g id="AFFORDABLE">
</g>
<g id="Footer">
</g>
<g id="_x31_2_Col_Grid" class="st3">
</g>
<g id="Divider_Bars">
</g>
<g id="Request_Info">
</g>
<g id="ACCESSIBLE">
</g>
<g id="Scholarships">
</g>
<g id="ONLINE">
</g>
<g id="Quick_Facts">
	<text transform="matrix(1 0 0 1 216.5012 60.3728)" class="st7 st11 st12"> </text>
	<text transform="matrix(1 0 0 1 223.5266 60.3728)" class="st7 st11 st12"> </text>
	<text transform="matrix(1 0 0 1 216.0432 81.99)" class="st7 st11 st13"> </text>
	<text transform="matrix(1 0 0 1 215.3801 81.99)" class="st7 st11 st14"> </text>
	<text transform="matrix(1 0 0 1 207.7847 83.62)" class="st7 st11 st14"> </text>
	<polygon class="st5" points="232,0 109.9,0 109.9,0 0,0 0,105 115.5,105 115.5,105 232,105 	"/>
	<g>
		<path class="st7" d="M49.7,80.4c-15.5,0-28.2-12.6-28.2-28.2c0-15.5,12.6-28.2,28.2-28.2s28.2,12.6,28.2,28.2
			C77.8,67.8,65.2,80.4,49.7,80.4 M49.7,19.4c-18.1,0-32.9,14.7-32.9,32.9c0,18.1,14.7,32.9,32.9,32.9s32.9-14.7,32.9-32.9
			C82.5,34.1,67.8,19.4,49.7,19.4"/>
		<path id="_x24__2_" class="st2" d="M50.8,49.8L50.8,49.8c-5.6-1-8.5-2.4-8.5-4.3c0-2,3.3-3.5,7.7-3.5c4.7,0,7.1,2.4,7.6,4
			c0.4,1.2,1.7,2,2.9,1.6c1.2-0.4,2-1.7,1.6-2.9c-0.9-3.1-4.1-6.3-9.4-7.2v-3.1c0-1.3-1.1-2.3-2.3-2.3c-1.3,0-2.3,1.1-2.3,2.3v2.9
			c-6.3,0.5-10.4,3.6-10.4,8.1c0,6.7,9,8.3,12.4,8.9c8.5,1.5,8.5,3.7,8.5,4.5c0,1.7-2.9,3.5-7.7,3.5c-5.7,0-9.6-2.3-9.9-4.4
			c-0.2-1.3-1.4-2.1-2.7-1.9c-1.3,0.2-2.1,1.4-1.9,2.7c0.7,4.3,5.4,7.4,11.8,8.1v3c0,1.3,1.1,2.3,2.3,2.3c1.3,0,2.3-1.1,2.3-2.3V67
			c6.2-0.5,10.4-3.7,10.4-8.1C63.1,52.8,56.5,50.8,50.8,49.8"/>
	</g>
	<g>
		<g>
			<path class="st2" d="M102.9,27.6h-6v-4h16.2v4h-6v15.6h-4.3V27.6z"/>
			<path class="st2" d="M127,43.6c-1.5,0-2.9-0.3-4.2-0.8c-1.3-0.5-2.4-1.2-3.3-2.2c-0.9-0.9-1.6-2-2.2-3.2s-0.8-2.5-0.8-3.9v-0.1
				c0-1.4,0.3-2.7,0.8-3.9c0.5-1.2,1.2-2.3,2.2-3.2c0.9-0.9,2-1.7,3.3-2.2c1.3-0.5,2.7-0.8,4.2-0.8c1.5,0,2.9,0.3,4.2,0.8
				c1.3,0.5,2.4,1.3,3.3,2.2c0.9,0.9,1.6,2,2.2,3.2s0.8,2.5,0.8,3.9v0.1c0,1.4-0.3,2.7-0.8,3.9c-0.5,1.2-1.2,2.3-2.2,3.2
				c-0.9,0.9-2,1.7-3.3,2.2S128.5,43.6,127,43.6z M127.1,39.6c0.9,0,1.7-0.2,2.4-0.5c0.7-0.3,1.3-0.8,1.9-1.3
				c0.5-0.6,0.9-1.2,1.2-1.9c0.3-0.7,0.4-1.5,0.4-2.4v-0.1c0-0.8-0.1-1.6-0.4-2.4c-0.3-0.7-0.7-1.4-1.2-2c-0.5-0.6-1.2-1-1.9-1.3
				c-0.7-0.3-1.5-0.5-2.4-0.5c-0.9,0-1.7,0.2-2.4,0.5c-0.7,0.3-1.3,0.8-1.8,1.3s-0.9,1.2-1.2,1.9s-0.4,1.5-0.4,2.4v0.1
				c0,0.8,0.1,1.6,0.4,2.4c0.3,0.7,0.7,1.4,1.2,2s1.2,1,1.9,1.3C125.4,39.5,126.2,39.6,127.1,39.6z"/>
			<path class="st2" d="M142.3,23.7h8c1.2,0,2.2,0.2,3.1,0.5c0.9,0.3,1.7,0.8,2.4,1.4c0.6,0.6,1.1,1.3,1.5,2.1
				c0.3,0.8,0.5,1.8,0.5,2.8v0.1c0,1.1-0.2,2.1-0.6,3c-0.4,0.9-1,1.6-1.7,2.2c-0.7,0.6-1.6,1-2.5,1.3c-1,0.3-2,0.4-3.1,0.4h-3.3v5.9
				h-4.3V23.7z M150,33.6c1.1,0,1.9-0.3,2.5-0.9c0.6-0.6,0.9-1.3,0.9-2.1v-0.1c0-1-0.3-1.7-0.9-2.2c-0.6-0.5-1.5-0.8-2.6-0.8h-3.3v6
				H150z"/>
			<path class="st2" d="M170.5,39.9l6.5-5.3c0.6-0.5,1.1-1,1.6-1.4s0.8-0.8,1-1.1c0.3-0.4,0.5-0.7,0.6-1.1c0.1-0.3,0.2-0.7,0.2-1.1
				c0-0.8-0.2-1.5-0.7-1.9c-0.5-0.4-1.1-0.6-1.9-0.6c-0.8,0-1.4,0.2-2,0.6c-0.6,0.4-1.2,1.1-2,2l-3-2.4c0.5-0.7,1-1.2,1.5-1.7
				s1-0.9,1.6-1.3c0.6-0.3,1.2-0.6,1.9-0.8c0.7-0.2,1.5-0.3,2.4-0.3c1,0,1.9,0.1,2.8,0.4c0.8,0.3,1.5,0.7,2.1,1.2s1,1.2,1.4,1.9
				c0.3,0.7,0.5,1.6,0.5,2.5v0.1c0,0.8-0.1,1.6-0.3,2.2c-0.2,0.6-0.5,1.3-1,1.8s-1,1.1-1.6,1.7s-1.4,1.2-2.3,1.9l-3.2,2.5h8.5v3.7
				h-14.5V39.9z"/>
			<path class="st2" d="M196.1,43.6c-1.6,0-3-0.3-4.1-0.8c-1.2-0.5-2.2-1.2-3.2-2.2l2.6-3.1c0.7,0.7,1.5,1.2,2.2,1.6
				c0.7,0.4,1.6,0.6,2.4,0.6c1,0,1.8-0.2,2.4-0.7c0.6-0.5,0.9-1.1,0.9-2v-0.1c0-0.8-0.3-1.5-1-2c-0.6-0.5-1.5-0.7-2.5-0.7
				c-0.6,0-1.2,0.1-1.8,0.2c-0.6,0.1-1.1,0.3-1.5,0.5l-2.5-1.7l0.6-9.7h12.1v3.8h-8.4l-0.2,3.4c0.4-0.1,0.8-0.2,1.2-0.2
				c0.4-0.1,0.9-0.1,1.4-0.1c1,0,1.8,0.1,2.7,0.4c0.8,0.2,1.6,0.6,2.2,1.1c0.6,0.5,1.1,1.2,1.5,1.9c0.4,0.8,0.5,1.7,0.5,2.8v0.1
				c0,1-0.2,2-0.5,2.8c-0.4,0.8-0.9,1.5-1.5,2.1s-1.4,1-2.4,1.4C198.2,43.4,197.2,43.6,196.1,43.6z"/>
		</g>
		<g>
			<path class="st7" d="M126.8,50.8h3l3.3,5.3l3.3-5.3h3v12.6h-2.7v-8.2l-3.5,5.4H133l-3.5-5.3v8.2h-2.7V50.8z"/>
			<path class="st7" d="M148.9,63.6c-1,0-1.9-0.2-2.7-0.5c-0.8-0.3-1.5-0.8-2.1-1.4s-1.1-1.3-1.4-2.1c-0.3-0.8-0.5-1.6-0.5-2.5v0
				c0-0.9,0.2-1.7,0.5-2.5s0.8-1.5,1.4-2.1c0.6-0.6,1.3-1.1,2.1-1.4c0.8-0.3,1.7-0.5,2.7-0.5s1.9,0.2,2.7,0.5
				c0.8,0.3,1.5,0.8,2.1,1.4s1.1,1.3,1.4,2.1c0.3,0.8,0.5,1.6,0.5,2.5v0c0,0.9-0.2,1.7-0.5,2.5c-0.3,0.8-0.8,1.5-1.4,2.1
				c-0.6,0.6-1.3,1.1-2.1,1.4C150.7,63.5,149.8,63.6,148.9,63.6z M148.9,61.1c0.6,0,1.1-0.1,1.5-0.3c0.5-0.2,0.9-0.5,1.2-0.8
				c0.3-0.4,0.6-0.8,0.8-1.3c0.2-0.5,0.3-1,0.3-1.5v0c0-0.5-0.1-1-0.3-1.5c-0.2-0.5-0.5-0.9-0.8-1.3c-0.3-0.4-0.7-0.6-1.2-0.9
				s-1-0.3-1.5-0.3c-0.6,0-1.1,0.1-1.5,0.3s-0.9,0.5-1.2,0.8c-0.3,0.4-0.6,0.8-0.8,1.3c-0.2,0.5-0.3,1-0.3,1.5v0
				c0,0.5,0.1,1,0.3,1.5c0.2,0.5,0.5,0.9,0.8,1.3c0.3,0.4,0.7,0.6,1.2,0.9S148.3,61.1,148.9,61.1z"/>
			<path class="st7" d="M162.6,63.6c-1,0-1.9-0.2-2.8-0.5c-0.9-0.3-1.8-0.8-2.5-1.5l1.6-2c0.6,0.5,1.2,0.8,1.8,1.1
				c0.6,0.3,1.3,0.4,2,0.4c0.6,0,1-0.1,1.3-0.3c0.3-0.2,0.5-0.5,0.5-0.9v0c0-0.2,0-0.3-0.1-0.5c-0.1-0.1-0.2-0.3-0.4-0.4
				c-0.2-0.1-0.4-0.2-0.8-0.4s-0.8-0.2-1.3-0.4c-0.6-0.2-1.2-0.3-1.7-0.5c-0.5-0.2-1-0.4-1.3-0.7c-0.4-0.3-0.6-0.6-0.8-1.1
				s-0.3-0.9-0.3-1.6v0c0-0.6,0.1-1.1,0.3-1.6s0.5-0.9,0.9-1.2s0.9-0.6,1.4-0.8c0.5-0.2,1.1-0.3,1.8-0.3c0.9,0,1.8,0.1,2.5,0.4
				c0.8,0.3,1.5,0.7,2.1,1.2l-1.4,2.1c-0.6-0.4-1.1-0.7-1.7-0.9c-0.5-0.2-1.1-0.3-1.6-0.3s-0.9,0.1-1.2,0.3
				c-0.3,0.2-0.4,0.5-0.4,0.8v0c0,0.2,0,0.4,0.1,0.5s0.2,0.3,0.4,0.4s0.5,0.2,0.8,0.3c0.4,0.1,0.8,0.2,1.3,0.4
				c0.6,0.2,1.2,0.4,1.7,0.6s0.9,0.5,1.3,0.8c0.3,0.3,0.6,0.6,0.8,1c0.2,0.4,0.3,0.9,0.3,1.4v0c0,0.6-0.1,1.2-0.3,1.7
				c-0.2,0.5-0.5,0.9-0.9,1.2s-0.9,0.6-1.5,0.8C163.9,63.5,163.3,63.6,162.6,63.6z"/>
			<path class="st7" d="M172.8,53.4H169v-2.6h10.4v2.6h-3.8v10h-2.8V53.4z"/>
		</g>
		<g>
			<path class="st7" d="M89.2,68.8h2.6l5.4,12.7h-2.9l-1.2-2.8h-5.3l-1.2,2.8h-2.8L89.2,68.8z M92.1,76.3l-1.7-4.1l-1.7,4.1H92.1z"
				/>
			<path class="st7" d="M99.6,68.9h9.6v2.5h-6.8v2.7h6v2.5h-6v4.9h-2.8V68.9z"/>
			<path class="st7" d="M111.9,68.9h9.6v2.5h-6.8v2.7h6v2.5h-6v4.9h-2.8V68.9z"/>
			<path class="st7" d="M130.1,81.7c-1,0-1.9-0.2-2.7-0.5c-0.8-0.3-1.5-0.8-2.1-1.4s-1.1-1.3-1.4-2.1c-0.3-0.8-0.5-1.6-0.5-2.5v0
				c0-0.9,0.2-1.7,0.5-2.5s0.8-1.5,1.4-2.1c0.6-0.6,1.3-1.1,2.1-1.4c0.8-0.3,1.7-0.5,2.7-0.5s1.9,0.2,2.7,0.5
				c0.8,0.3,1.5,0.8,2.1,1.4s1.1,1.3,1.4,2.1c0.3,0.8,0.5,1.6,0.5,2.5v0c0,0.9-0.2,1.7-0.5,2.5c-0.3,0.8-0.8,1.5-1.4,2.1
				c-0.6,0.6-1.3,1.1-2.1,1.4C131.9,81.6,131,81.7,130.1,81.7z M130.1,79.2c0.6,0,1.1-0.1,1.5-0.3c0.5-0.2,0.9-0.5,1.2-0.8
				c0.3-0.4,0.6-0.8,0.8-1.3c0.2-0.5,0.3-1,0.3-1.5v0c0-0.5-0.1-1-0.3-1.5c-0.2-0.5-0.5-0.9-0.8-1.3c-0.3-0.4-0.7-0.6-1.2-0.9
				s-1-0.3-1.5-0.3c-0.6,0-1.1,0.1-1.5,0.3s-0.9,0.5-1.2,0.8c-0.3,0.4-0.6,0.8-0.8,1.3c-0.2,0.5-0.3,1-0.3,1.5v0
				c0,0.5,0.1,1,0.3,1.5c0.2,0.5,0.5,0.9,0.8,1.3c0.3,0.4,0.7,0.6,1.2,0.9S129.5,79.2,130.1,79.2z"/>
			<path class="st7" d="M139.8,68.9h5.8c1.6,0,2.8,0.4,3.7,1.3c0.7,0.7,1.1,1.7,1.1,2.9v0c0,1-0.2,1.9-0.7,2.5
				c-0.5,0.6-1.1,1.1-2,1.4l3.1,4.5h-3.2l-2.7-4h-2.2v4h-2.8V68.9z M145.4,75c0.7,0,1.2-0.2,1.6-0.5s0.5-0.8,0.5-1.3v0
				c0-0.6-0.2-1-0.6-1.3c-0.4-0.3-0.9-0.4-1.6-0.4h-2.8V75H145.4z"/>
			<path class="st7" d="M153.5,68.9h4.9c1,0,1.9,0.2,2.7,0.5c0.8,0.3,1.5,0.8,2.1,1.3s1.1,1.2,1.4,2c0.3,0.8,0.5,1.6,0.5,2.5v0
				c0,0.9-0.2,1.7-0.5,2.5c-0.3,0.8-0.8,1.4-1.4,2c-0.6,0.6-1.3,1-2.1,1.3c-0.8,0.3-1.7,0.5-2.7,0.5h-4.9V68.9z M156.3,71.4V79h2.1
				c0.6,0,1.1-0.1,1.5-0.3c0.5-0.2,0.9-0.4,1.2-0.8c0.3-0.3,0.6-0.7,0.8-1.2c0.2-0.5,0.3-1,0.3-1.5v0c0-0.5-0.1-1.1-0.3-1.5
				c-0.2-0.5-0.4-0.9-0.8-1.2c-0.3-0.3-0.7-0.6-1.2-0.8c-0.5-0.2-1-0.3-1.5-0.3H156.3z"/>
			<path class="st7" d="M171.8,68.8h2.6l5.4,12.7h-2.9l-1.2-2.8h-5.3l-1.2,2.8h-2.8L171.8,68.8z M174.7,76.3l-1.7-4.1l-1.7,4.1
				H174.7z"/>
			<path class="st7" d="M182.2,68.9h5.8c1.4,0,2.5,0.4,3.3,1.1c0.6,0.6,0.9,1.3,0.9,2.1v0c0,0.4,0,0.7-0.1,1
				c-0.1,0.3-0.2,0.5-0.4,0.7c-0.1,0.2-0.3,0.4-0.5,0.6c-0.2,0.2-0.4,0.3-0.6,0.4c0.7,0.3,1.3,0.7,1.7,1.1c0.4,0.5,0.6,1.1,0.6,2v0
				c0,0.6-0.1,1.1-0.3,1.5c-0.2,0.4-0.5,0.8-1,1.1s-0.9,0.5-1.5,0.6c-0.6,0.1-1.2,0.2-1.9,0.2h-6V68.9z M189.4,72.7
				c0-0.4-0.2-0.7-0.5-1s-0.8-0.3-1.3-0.3h-2.7V74h2.6c0.6,0,1.1-0.1,1.5-0.3C189.3,73.5,189.4,73.2,189.4,72.7L189.4,72.7z
				 M190.1,77.7c0-0.4-0.2-0.8-0.5-1c-0.3-0.2-0.8-0.4-1.6-0.4h-3.2v2.8h3.3c0.6,0,1.1-0.1,1.4-0.3C190,78.5,190.1,78.2,190.1,77.7
				L190.1,77.7z"/>
			<path class="st7" d="M195.9,68.9h2.8V79h6.3v2.5h-9.1V68.9z"/>
			<path class="st7" d="M207.4,68.9h9.5v2.5h-6.8V74h5.9v2.5h-5.9v2.6h6.8v2.5h-9.6V68.9z"/>
		</g>
		<line class="st15" x1="183" y1="57.5" x2="217" y2="57.5"/>
		<line class="st15" x1="88" y1="57.5" x2="122" y2="57.5"/>
	</g>
</g>
<g id="Body_Copy">
</g>
<g id="Business_1_">
</g>
<g id="Early_Education">
</g>
<g id="IT_Security">
</g>
<g id="Human_Services">
</g>
<g id="Video">
	<g id="Layer_15" class="st0">
	</g>
	<g id="Layer_14">
	</g>
</g>
<g id="NAVIGATION">
</g>
</svg>
