<?xml version="1.0" encoding="utf-8"?>
<!-- Generator: Adobe Illustrator 16.2.1, SVG Export Plug-In . SVG Version: 6.00 Build 0)  -->
<!DOCTYPE svg PUBLIC "-//W3C//DTD SVG 1.1//EN" "http://www.w3.org/Graphics/SVG/1.1/DTD/svg11.dtd">
<svg version="1.1" id="Layer_1" xmlns="http://www.w3.org/2000/svg" xmlns:xlink="http://www.w3.org/1999/xlink" x="0px" y="0px"
	 width="335.383px" height="34.235px" viewBox="0 0 335.383 34.235" enable-background="new 0 0 335.383 34.235"
	 xml:space="preserve">
<g>
	<path fill="#F3C51F" d="M0,0.567h2.459v33.102H0V0.567z"/>
</g>
<g>
	<path fill="#F3C51F" d="M12.674,0.567h2.317l13.288,19.577L41.566,0.567h2.317v33.102h-2.459V4.918L28.326,23.975h-0.189
		L15.038,4.918v28.751h-2.364V0.567z"/>
</g>
<g>
	<path fill="#F3C51F" d="M66.158,0.331h2.364l15.416,33.338h-2.695L77.034,24.4H57.505l-4.208,9.269h-2.554L66.158,0.331z
		 M75.994,22.178L67.293,3.026l-8.748,19.151H75.994z"/>
</g>
<g>
	<path fill="#F3C51F" d="M87.44,17.212v-0.094C87.44,8.181,93.918,0,103.801,0c5.391,0,8.795,1.608,12.105,4.351l-1.608,1.844
		c-2.601-2.27-5.627-3.972-10.64-3.972c-8.039,0-13.666,6.809-13.666,14.801v0.095c0,8.559,5.344,14.942,14.186,14.942
		c4.208,0,8.133-1.749,10.545-3.782v-9.505h-11.065v-2.27h13.43v12.767c-2.979,2.648-7.613,4.965-13.004,4.965
		C93.634,34.235,87.44,26.528,87.44,17.212z"/>
</g>
<g>
	<path fill="#F3C51F" d="M126.455,0.567h2.459v33.102h-2.459V0.567z"/>
</g>
<g>
	<path fill="#F3C51F" d="M139.128,0.567h2.317l22.84,28.798V0.567h2.364v33.102h-1.844L141.493,4.256v29.413h-2.364V0.567z"/>
</g>
<g>
	<path fill="#F3C51F" d="M176.724,0.567h23.549v2.27h-21.09v13.004h18.961v2.27h-18.961v13.288h21.326v2.271h-23.786V0.567z"/>
</g>
<g>
	<path fill="#FFFFFF" d="M231.014,20.617l-12.721-20.05h8.512l7.896,13.288l8.039-13.288h8.275l-12.721,19.908v13.193h-7.281V20.617
		z"/>
</g>
<g>
	<path fill="#FFFFFF" d="M251.585,17.212v-0.094c0-9.41,7.424-17.118,17.638-17.118c10.215,0,17.543,7.613,17.543,17.023v0.095
		c0,9.41-7.424,17.117-17.637,17.117C258.914,34.235,251.585,26.622,251.585,17.212z M279.153,17.212v-0.094
		c0-5.675-4.161-10.403-10.024-10.403c-5.864,0-9.931,4.634-9.931,10.309v0.095c0,5.674,4.161,10.402,10.024,10.402
		S279.153,22.888,279.153,17.212z"/>
</g>
<g>
	<path fill="#FFFFFF" d="M292.869,19.482V0.567h7.283v18.726c0,5.392,2.695,8.181,7.14,8.181s7.14-2.695,7.14-7.944V0.567h7.283
		v18.679c0,10.024-5.627,14.942-14.518,14.942C298.308,34.188,292.869,29.224,292.869,19.482z"/>
</g>
<g>
	<path fill="#F3C51F" d="M327.723,26.103h7.66v7.566h-7.66V26.103z"/>
</g>
</svg>
