<?xml version="1.0" encoding="utf-8"?>
<!-- Generator: Adobe Illustrator 19.1.0, SVG Export Plug-In . SVG Version: 6.00 Build 0)  -->
<svg version="1.1" xmlns="http://www.w3.org/2000/svg" xmlns:xlink="http://www.w3.org/1999/xlink" x="0px" y="0px"
	 viewBox="0 0 232 105" style="enable-background:new 0 0 232 105;" xml:space="preserve">
<style type="text/css">
	.st0{display:none;}
	.st1{fill:#2D2E33;}
	.st2{fill:#FFFFFF;}
	.st3{opacity:0.1;enable-background:new    ;}
	.st4{fill:#FF0000;}
	.st5{fill:#25408E;}
	.st6{clip-path:url(#SVGID_2_);}
	.st7{fill:#F3C51F;}
	.st8{fill:#F2F2F2;}
	.st9{fill:#F2C41F;}
	.st10{display:none;fill:none;}
	.st11{font-family:'Gotham-Bold';}
	.st12{font-size:17.5632px;}
	.st13{fill:none;stroke:#F2F2F2;stroke-miterlimit:10;}
	.st14{fill:#231F20;}
	.st15{clip-path:url(#SVGID_6_);}
	.st16{clip-path:url(#SVGID_8_);}
	.st17{opacity:0.6;clip-path:url(#SVGID_12_);}
	.st18{clip-path:url(#SVGID_14_);fill:#F3C51F;}
	.st19{clip-path:url(#SVGID_16_);}
	.st20{clip-path:url(#SVGID_18_);}
	.st21{clip-path:url(#SVGID_20_);}
	.st22{opacity:0.6;clip-path:url(#SVGID_22_);}
	.st23{clip-path:url(#SVGID_24_);fill:#F3C51F;}
	.st24{clip-path:url(#SVGID_26_);}
	.st25{clip-path:url(#SVGID_28_);}
	.st26{clip-path:url(#SVGID_30_);}
	.st27{opacity:0.6;clip-path:url(#SVGID_32_);}
	.st28{clip-path:url(#SVGID_34_);fill:#F3C51F;}
	.st29{clip-path:url(#SVGID_36_);}
	.st30{clip-path:url(#SVGID_38_);}
	.st31{opacity:0.6;clip-path:url(#SVGID_40_);}
	.st32{clip-path:url(#SVGID_42_);fill:#F3C51F;}
	.st33{clip-path:url(#SVGID_44_);}
	.st34{clip-path:url(#SVGID_46_);}
	.st35{opacity:0.6;clip-path:url(#SVGID_48_);}
	.st36{clip-path:url(#SVGID_50_);fill:#F3C51F;}
	.st37{clip-path:url(#SVGID_52_);}
	.st38{clip-path:url(#SVGID_54_);}
	.st39{display:inline;}
	.st40{display:inline;opacity:0.6;clip-path:url(#SVGID_56_);}
	.st41{clip-path:url(#SVGID_58_);fill:#F3C51F;}
	.st42{clip-path:url(#SVGID_60_);}
	.st43{opacity:0.6;clip-path:url(#SVGID_60_);}
	.st44{clip-path:url(#SVGID_62_);fill:#F3C51F;}
	.st45{clip-path:url(#SVGID_64_);}
	.st46{clip-path:url(#SVGID_66_);}
	.st47{opacity:0.6;clip-path:url(#SVGID_70_);}
	.st48{clip-path:url(#SVGID_72_);fill:#F3C51F;}
	.st49{display:inline;clip-path:url(#SVGID_74_);}
	.st50{clip-path:url(#SVGID_76_);}
	.st51{opacity:0.6;clip-path:url(#SVGID_80_);}
	.st52{clip-path:url(#SVGID_82_);fill:#F3C51F;}
	.st53{display:inline;opacity:0.6;clip-path:url(#SVGID_84_);}
	.st54{clip-path:url(#SVGID_86_);fill:#F3C51F;}
	.st55{clip-path:url(#SVGID_88_);}
	.st56{clip-path:url(#SVGID_90_);}
	.st57{clip-path:url(#SVGID_92_);}
	.st58{opacity:0.6;clip-path:url(#SVGID_94_);}
	.st59{clip-path:url(#SVGID_96_);fill:#F3C51F;}
	.st60{clip-path:url(#SVGID_98_);}
	.st61{clip-path:url(#SVGID_100_);}
	.st62{opacity:0.6;clip-path:url(#SVGID_104_);}
	.st63{clip-path:url(#SVGID_106_);fill:#F3C51F;}
	.st64{clip-path:url(#SVGID_108_);}
	.st65{opacity:0.6;clip-path:url(#SVGID_108_);}
	.st66{clip-path:url(#SVGID_110_);fill:#F3C51F;}
	.st67{clip-path:url(#SVGID_112_);}
	.st68{clip-path:url(#SVGID_114_);}
	.st69{opacity:0.6;clip-path:url(#SVGID_118_);}
	.st70{clip-path:url(#SVGID_120_);fill:#F3C51F;}
	.st71{clip-path:url(#SVGID_122_);}
	.st72{clip-path:url(#SVGID_124_);}
	.st73{opacity:0.6;clip-path:url(#SVGID_128_);}
	.st74{clip-path:url(#SVGID_130_);fill:#F3C51F;}
	.st75{clip-path:url(#SVGID_132_);}
	.st76{clip-path:url(#SVGID_134_);}
	.st77{opacity:0.6;clip-path:url(#SVGID_138_);}
	.st78{clip-path:url(#SVGID_140_);fill:#F3C51F;}
	.st79{clip-path:url(#SVGID_142_);}
	.st80{clip-path:url(#SVGID_144_);}
	.st81{opacity:0.6;clip-path:url(#SVGID_148_);}
	.st82{clip-path:url(#SVGID_150_);fill:#F3C51F;}
	.st83{clip-path:url(#SVGID_152_);}
	.st84{clip-path:url(#SVGID_154_);}
	.st85{opacity:0.6;clip-path:url(#SVGID_156_);}
	.st86{clip-path:url(#SVGID_158_);fill:#F3C51F;}
	.st87{clip-path:url(#SVGID_160_);}
	.st88{clip-path:url(#SVGID_162_);}
	.st89{opacity:0.6;clip-path:url(#SVGID_166_);}
	.st90{clip-path:url(#SVGID_168_);fill:#F3C51F;}
	.st91{clip-path:url(#SVGID_170_);}
	.st92{clip-path:url(#SVGID_172_);}
	.st93{opacity:0.6;clip-path:url(#SVGID_176_);}
	.st94{clip-path:url(#SVGID_178_);fill:#F3C51F;}
	.st95{clip-path:url(#SVGID_180_);}
	.st96{clip-path:url(#SVGID_182_);}
	.st97{opacity:0.6;clip-path:url(#SVGID_184_);}
	.st98{clip-path:url(#SVGID_186_);fill:#F3C51F;}
	.st99{clip-path:url(#SVGID_188_);}
	.st100{clip-path:url(#SVGID_190_);}
	.st101{clip-path:url(#SVGID_192_);}
	.st102{opacity:0.6;clip-path:url(#SVGID_194_);}
	.st103{clip-path:url(#SVGID_196_);fill:#F3C51F;}
	.st104{opacity:0.27;clip-path:url(#SVGID_200_);}
	.st105{clip-path:url(#SVGID_202_);fill:#0C0C0E;}
	.st106{fill:none;stroke:#25408E;stroke-width:2.8453;}
	.st107{opacity:0.27;clip-path:url(#SVGID_206_);}
	.st108{clip-path:url(#SVGID_208_);fill:#0C0C0E;}
	.st109{opacity:0.27;clip-path:url(#SVGID_212_);}
	.st110{clip-path:url(#SVGID_214_);fill:#0C0C0E;}
	.st111{fill:none;stroke:#25408E;stroke-width:5.6905;}
	.st112{clip-path:url(#SVGID_216_);fill:#25408E;}
	.st113{opacity:0.85;clip-path:url(#SVGID_218_);}
	.st114{clip-path:url(#SVGID_220_);fill:#F3C51F;}
	.st115{clip-path:url(#SVGID_218_);}
</style>
<g id="Guides" class="st0">
</g>
<g id="AFFORDABLE">
</g>
<g id="Footer">
</g>
<g id="_x31_2_Col_Grid" class="st3">
</g>
<g id="Divider_Bars">
</g>
<g id="Request_Info">
</g>
<g id="ACCESSIBLE">
</g>
<g id="Scholarships">
</g>
<g id="ONLINE">
</g>
<g id="Quick_Facts">
	<text transform="matrix(1 0 0 1 223.5266 60.3728)" class="st7 st11 st12"> </text>
	<rect x="0" y="-0.5" class="st1" width="232" height="105"/>
	<g>
		<path class="st7" d="M189.5,86.2c-0.7,0-1.3-0.3-1.8-0.8c-9.6-11.2-35.2-40.8-16-60.2c5.6-5.7,14.3-8.3,22.7-6.9
			c8.3,1.4,14.9,6.6,18.6,14.4c7.5,16.2-6.1,33.5-14.3,43.8c-0.9,1.1-1.7,2.2-2.4,3.1c-0.8,1-2.3,1.2-3.3,0.4
			c-1-0.8-1.2-2.3-0.4-3.3c0.7-1,1.6-2,2.5-3.2c7.5-9.5,20-25.4,13.7-38.9c-3-6.4-8.4-10.6-15.1-11.8c-6.8-1.2-14,1-18.5,5.6
			c-14.5,14.7,2.3,37.8,16.2,53.9c0.8,1,0.7,2.5-0.2,3.3C190.6,86,190.1,86.2,189.5,86.2"/>
		<path class="st2" d="M190,38.3c-2.8,0-5.1,2.3-5.1,5.1s2.3,5.1,5.1,5.1c2.8,0,5.1-2.3,5.1-5.1S192.8,38.3,190,38.3 M190,53.2
			c-5.4,0-9.8-4.4-9.8-9.8s4.4-9.8,9.8-9.8c5.4,0,9.8,4.4,9.8,9.8S195.4,53.2,190,53.2"/>
	</g>
	<g>
		<g>
			<path class="st2" d="M20.5,62.7c-1.2,0-2.3-0.2-3.2-0.6c-0.9-0.4-1.7-1-2.5-1.7l2-2.4c0.6,0.5,1.1,0.9,1.7,1.2
				c0.6,0.3,1.2,0.4,1.9,0.4c0.8,0,1.4-0.2,1.8-0.5c0.5-0.4,0.7-0.9,0.7-1.5v0c0-0.6-0.2-1.1-0.7-1.5c-0.5-0.4-1.1-0.5-1.9-0.5
				c-0.5,0-0.9,0.1-1.3,0.2c-0.4,0.1-0.8,0.2-1.2,0.4l-1.9-1.3l0.4-7.4h9.3v2.9h-6.4L19,52.9c0.3-0.1,0.6-0.1,0.9-0.2
				c0.3,0,0.7-0.1,1.1-0.1c0.7,0,1.4,0.1,2.1,0.3s1.2,0.5,1.7,0.9c0.5,0.4,0.9,0.9,1.1,1.5s0.4,1.3,0.4,2.2v0c0,0.8-0.1,1.5-0.4,2.2
				s-0.7,1.2-1.2,1.6c-0.5,0.5-1.1,0.8-1.8,1C22.2,62.6,21.4,62.7,20.5,62.7z"/>
			<path class="st2" d="M42.8,62.7c-1.1,0-2.1-0.2-3.1-0.6c-0.9-0.4-1.8-0.9-2.5-1.6c-0.7-0.7-1.2-1.5-1.6-2.5c-0.4-0.9-0.6-2-0.6-3
				v0c0-1.1,0.2-2.1,0.6-3c0.4-0.9,0.9-1.8,1.6-2.5c0.7-0.7,1.5-1.3,2.5-1.7s2-0.6,3.2-0.6c0.7,0,1.3,0.1,1.9,0.2
				c0.6,0.1,1.1,0.3,1.6,0.5c0.5,0.2,0.9,0.4,1.3,0.7c0.4,0.3,0.8,0.6,1.1,0.9l-2.1,2.4c-0.6-0.5-1.2-0.9-1.8-1.2s-1.3-0.5-2.1-0.5
				c-0.6,0-1.2,0.1-1.8,0.4c-0.5,0.2-1,0.6-1.4,1c-0.4,0.4-0.7,0.9-0.9,1.5s-0.3,1.2-0.3,1.8v0c0,0.6,0.1,1.3,0.3,1.8
				s0.5,1.1,0.9,1.5s0.8,0.8,1.4,1c0.5,0.3,1.1,0.4,1.8,0.4c0.9,0,1.6-0.2,2.2-0.5s1.2-0.7,1.8-1.3L49,60c-0.4,0.4-0.8,0.8-1.2,1.1
				c-0.4,0.3-0.9,0.6-1.4,0.8c-0.5,0.2-1,0.4-1.6,0.5C44.2,62.6,43.6,62.7,42.8,62.7z"/>
			<path class="st2" d="M56.8,47.3h3.1l6.5,15.2h-3.5L61.5,59h-6.4l-1.4,3.4h-3.4L56.8,47.3z M60.3,56.1l-2-4.9l-2,4.9H60.3z"/>
			<path class="st2" d="M68.6,47.4h3.6l4,6.4l4-6.4h3.6v15h-3.3v-9.8L76.2,59h-0.1l-4.2-6.4v9.8h-3.3V47.4z"/>
			<path class="st2" d="M87.3,47.4h6.1c0.9,0,1.7,0.1,2.4,0.4c0.7,0.3,1.3,0.6,1.8,1.1s0.9,1,1.1,1.6c0.3,0.6,0.4,1.3,0.4,2.1v0
				c0,0.9-0.2,1.6-0.5,2.3c-0.3,0.7-0.7,1.2-1.3,1.7s-1.2,0.8-1.9,1c-0.7,0.2-1.5,0.3-2.4,0.3h-2.5v4.5h-3.3V47.4z M93.2,55
				c0.8,0,1.5-0.2,1.9-0.7c0.5-0.4,0.7-1,0.7-1.6v0c0-0.7-0.2-1.3-0.7-1.7c-0.5-0.4-1.1-0.6-2-0.6h-2.6V55H93.2z"/>
			<path class="st2" d="M107.9,62.7c-2,0-3.6-0.6-4.8-1.7c-1.2-1.1-1.7-2.8-1.7-5v-8.6h3.3v8.5c0,1.2,0.3,2.2,0.9,2.8
				c0.6,0.6,1.4,0.9,2.4,0.9s1.8-0.3,2.4-0.9c0.6-0.6,0.9-1.5,0.9-2.7v-8.6h3.3v8.5c0,1.1-0.2,2.1-0.5,3c-0.3,0.8-0.8,1.6-1.3,2.1
				c-0.6,0.6-1.3,1-2.1,1.3S108.9,62.7,107.9,62.7z"/>
			<path class="st2" d="M123.3,62.6c-1.1,0-2.3-0.2-3.4-0.6c-1.1-0.4-2.1-1-3-1.8l2-2.3c0.7,0.6,1.4,1,2.1,1.3
				c0.7,0.3,1.5,0.5,2.4,0.5c0.7,0,1.2-0.1,1.6-0.4c0.4-0.3,0.6-0.6,0.6-1v0c0-0.2,0-0.4-0.1-0.6c-0.1-0.2-0.2-0.3-0.5-0.5
				c-0.2-0.1-0.5-0.3-0.9-0.4c-0.4-0.1-0.9-0.3-1.5-0.5c-0.8-0.2-1.4-0.4-2.1-0.6s-1.1-0.5-1.6-0.8c-0.4-0.3-0.8-0.8-1-1.3
				c-0.2-0.5-0.4-1.1-0.4-1.9v0c0-0.7,0.1-1.3,0.4-1.9c0.3-0.6,0.6-1,1.1-1.4s1-0.7,1.7-0.9s1.4-0.3,2.1-0.3c1.1,0,2.1,0.2,3,0.5
				c0.9,0.3,1.8,0.8,2.5,1.4l-1.7,2.5c-0.7-0.5-1.3-0.8-2-1.1c-0.6-0.3-1.3-0.4-1.9-0.4c-0.6,0-1.1,0.1-1.5,0.4s-0.5,0.6-0.5,0.9v0
				c0,0.2,0,0.5,0.1,0.6c0.1,0.2,0.3,0.3,0.5,0.5c0.2,0.1,0.6,0.3,1,0.4c0.4,0.1,1,0.3,1.6,0.5c0.8,0.2,1.4,0.4,2,0.7
				s1.1,0.6,1.5,0.9c0.4,0.4,0.7,0.8,0.9,1.2c0.2,0.5,0.3,1,0.3,1.7v0c0,0.7-0.1,1.4-0.4,2c-0.3,0.6-0.6,1.1-1.1,1.5
				c-0.5,0.4-1.1,0.7-1.7,0.9C124.8,62.5,124.1,62.6,123.3,62.6z"/>
			<path class="st2" d="M131.7,47.4H143v2.9h-8.1v3.1h7.1v2.9h-7.1v3.2h8.2v2.9h-11.4V47.4z"/>
			<path class="st2" d="M151.4,62.6c-1.1,0-2.3-0.2-3.4-0.6c-1.1-0.4-2.1-1-3-1.8l2-2.3c0.7,0.6,1.4,1,2.1,1.3
				c0.7,0.3,1.5,0.5,2.4,0.5c0.7,0,1.2-0.1,1.6-0.4c0.4-0.3,0.6-0.6,0.6-1v0c0-0.2,0-0.4-0.1-0.6c-0.1-0.2-0.2-0.3-0.5-0.5
				c-0.2-0.1-0.5-0.3-0.9-0.4c-0.4-0.1-0.9-0.3-1.5-0.5c-0.8-0.2-1.4-0.4-2.1-0.6s-1.1-0.5-1.6-0.8c-0.4-0.3-0.8-0.8-1-1.3
				c-0.2-0.5-0.4-1.1-0.4-1.9v0c0-0.7,0.1-1.3,0.4-1.9c0.3-0.6,0.6-1,1.1-1.4s1-0.7,1.7-0.9s1.4-0.3,2.1-0.3c1.1,0,2.1,0.2,3,0.5
				c0.9,0.3,1.8,0.8,2.5,1.4l-1.7,2.5c-0.7-0.5-1.3-0.8-2-1.1c-0.6-0.3-1.3-0.4-1.9-0.4c-0.6,0-1.1,0.1-1.5,0.4s-0.5,0.6-0.5,0.9v0
				c0,0.2,0,0.5,0.1,0.6c0.1,0.2,0.3,0.3,0.5,0.5c0.2,0.1,0.6,0.3,1,0.4c0.4,0.1,1,0.3,1.6,0.5c0.8,0.2,1.4,0.4,2,0.7
				s1.1,0.6,1.5,0.9c0.4,0.4,0.7,0.8,0.9,1.2c0.2,0.5,0.3,1,0.3,1.7v0c0,0.7-0.1,1.4-0.4,2c-0.3,0.6-0.6,1.1-1.1,1.5
				c-0.5,0.4-1.1,0.7-1.7,0.9C153,62.5,152.2,62.6,151.4,62.6z"/>
		</g>
		<g>
			<path class="st7" d="M18.3,75.8h-3.2v-3h3.2v-3.1h3.1v3.1h3.2v3h-3.2v3.1h-3.1V75.8z"/>
			<path class="st8" d="M29.4,70.8h2.3l2.6,4.1l2.6-4.1h2.3v9.8H37v-6.4l-2.8,4.2h-0.1l-2.7-4.1v6.4h-2.1V70.8z"/>
			<path class="st8" d="M45.4,80.8c-1.3,0-2.4-0.4-3.1-1.1c-0.8-0.7-1.1-1.8-1.1-3.3v-5.6h2.2v5.5c0,0.8,0.2,1.4,0.6,1.8
				c0.4,0.4,0.9,0.6,1.6,0.6s1.2-0.2,1.6-0.6c0.4-0.4,0.6-1,0.6-1.8v-5.6h2.2v5.5c0,0.7-0.1,1.4-0.3,1.9c-0.2,0.6-0.5,1-0.9,1.4
				c-0.4,0.4-0.8,0.6-1.4,0.8C46.6,80.7,46,80.8,45.4,80.8z"/>
			<path class="st8" d="M51.6,70.8h2.2v7.8h4.9v2h-7V70.8z"/>
			<path class="st8" d="M61,72.8h-3v-2h8.1v2h-3v7.8H61V72.8z"/>
			<path class="st8" d="M67.4,70.8h2.2v9.8h-2.2V70.8z"/>
			<path class="st8" d="M71.6,70.8h4c0.6,0,1.1,0.1,1.6,0.2s0.9,0.4,1.2,0.7c0.3,0.3,0.6,0.7,0.7,1.1s0.3,0.9,0.3,1.4v0
				c0,0.6-0.1,1.1-0.3,1.5c-0.2,0.4-0.5,0.8-0.8,1.1c-0.4,0.3-0.8,0.5-1.3,0.7c-0.5,0.1-1,0.2-1.5,0.2h-1.6v2.9h-2.2V70.8z
				 M75.5,75.8c0.5,0,1-0.1,1.3-0.4s0.4-0.6,0.4-1.1v0c0-0.5-0.2-0.8-0.5-1.1c-0.3-0.3-0.7-0.4-1.3-0.4h-1.7v3H75.5z"/>
			<path class="st8" d="M80.6,70.8h2.2v7.8h4.9v2h-7V70.8z"/>
			<path class="st8" d="M88.7,70.8h7.4v1.9h-5.2v2h4.6v1.9h-4.6v2.1h5.3v1.9h-7.4V70.8z"/>
			<path class="st8" d="M105.3,80.8c-0.7,0-1.4-0.1-2-0.4c-0.6-0.3-1.1-0.6-1.6-1.1s-0.8-1-1-1.6c-0.3-0.6-0.4-1.3-0.4-2v0
				c0-0.7,0.1-1.4,0.4-2s0.6-1.1,1-1.6c0.4-0.5,1-0.8,1.6-1.1c0.6-0.3,1.3-0.4,2.1-0.4c0.5,0,0.9,0,1.3,0.1c0.4,0.1,0.7,0.2,1,0.3
				c0.3,0.1,0.6,0.3,0.9,0.5c0.3,0.2,0.5,0.4,0.7,0.6l-1.4,1.6c-0.4-0.3-0.8-0.6-1.2-0.8c-0.4-0.2-0.8-0.3-1.3-0.3
				c-0.4,0-0.8,0.1-1.1,0.2c-0.4,0.2-0.7,0.4-0.9,0.7s-0.4,0.6-0.6,1c-0.1,0.4-0.2,0.8-0.2,1.2v0c0,0.4,0.1,0.8,0.2,1.2
				s0.3,0.7,0.6,1c0.2,0.3,0.5,0.5,0.9,0.7c0.4,0.2,0.7,0.2,1.2,0.2c0.6,0,1-0.1,1.4-0.3c0.4-0.2,0.8-0.5,1.2-0.8l1.4,1.4
				c-0.3,0.3-0.5,0.5-0.8,0.7c-0.3,0.2-0.6,0.4-0.9,0.6c-0.3,0.2-0.7,0.3-1.1,0.3S105.7,80.8,105.3,80.8z"/>
			<path class="st8" d="M110.5,70.8h7.4v1.9h-5.2v2h4.6v1.9h-4.6v2.1h5.3v1.9h-7.4V70.8z"/>
			<path class="st8" d="M119.7,70.8h2l4.6,6v-6h2.1v9.8h-1.8l-4.7-6.2v6.2h-2.1V70.8z"/>
			<path class="st8" d="M132.5,72.8h-3v-2h8.1v2h-3v7.8h-2.2V72.8z"/>
			<path class="st8" d="M138.8,70.8h7.4v1.9h-5.2v2h4.6v1.9h-4.6v2.1h5.3v1.9h-7.4V70.8z"/>
			<path class="st8" d="M147.9,70.8h4.5c1.2,0,2.2,0.3,2.9,1c0.6,0.6,0.8,1.3,0.8,2.2v0c0,0.8-0.2,1.4-0.6,1.9
				c-0.4,0.5-0.9,0.9-1.5,1.1l2.4,3.5h-2.5l-2.1-3.1h-1.7v3.1h-2.2V70.8z M152.3,75.6c0.5,0,0.9-0.1,1.2-0.4c0.3-0.3,0.4-0.6,0.4-1
				v0c0-0.5-0.1-0.8-0.4-1c-0.3-0.2-0.7-0.3-1.2-0.3h-2.1v2.8H152.3z"/>
			<path class="st8" d="M161.1,80.8c-0.7,0-1.5-0.1-2.2-0.4s-1.4-0.7-2-1.2l1.3-1.5c0.4,0.4,0.9,0.7,1.4,0.9c0.5,0.2,1,0.3,1.5,0.3
				c0.4,0,0.8-0.1,1-0.2s0.4-0.4,0.4-0.7v0c0-0.1,0-0.3-0.1-0.4c-0.1-0.1-0.1-0.2-0.3-0.3c-0.1-0.1-0.3-0.2-0.6-0.3
				c-0.3-0.1-0.6-0.2-1-0.3c-0.5-0.1-0.9-0.3-1.3-0.4s-0.7-0.3-1-0.6c-0.3-0.2-0.5-0.5-0.7-0.8c-0.2-0.3-0.2-0.7-0.2-1.2v0
				c0-0.4,0.1-0.9,0.2-1.2s0.4-0.7,0.7-0.9s0.7-0.5,1.1-0.6c0.4-0.1,0.9-0.2,1.4-0.2c0.7,0,1.4,0.1,2,0.3s1.2,0.5,1.7,0.9l-1.1,1.6
				c-0.4-0.3-0.9-0.5-1.3-0.7c-0.4-0.2-0.8-0.3-1.3-0.3s-0.7,0.1-0.9,0.2s-0.3,0.4-0.3,0.6v0c0,0.2,0,0.3,0.1,0.4
				c0.1,0.1,0.2,0.2,0.3,0.3c0.2,0.1,0.4,0.2,0.7,0.3s0.6,0.2,1,0.3c0.5,0.1,0.9,0.3,1.3,0.4s0.7,0.4,1,0.6c0.3,0.2,0.5,0.5,0.6,0.8
				c0.1,0.3,0.2,0.7,0.2,1.1v0c0,0.5-0.1,0.9-0.3,1.3c-0.2,0.4-0.4,0.7-0.7,1c-0.3,0.3-0.7,0.5-1.1,0.6
				C162.1,80.7,161.7,80.8,161.1,80.8z"/>
		</g>
		<g>
			<path class="st7" d="M22.1,23.5h3.1l6.5,15.2h-3.5l-1.4-3.4h-6.4L19,38.6h-3.4L22.1,23.5z M25.6,32.3l-2-4.9l-2,4.9H25.6z"/>
			<path class="st7" d="M41,38.9c-1.1,0-2.1-0.2-3.1-0.6c-0.9-0.4-1.8-0.9-2.5-1.6c-0.7-0.7-1.2-1.5-1.6-2.5c-0.4-0.9-0.6-2-0.6-3v0
				c0-1.1,0.2-2.1,0.6-3c0.4-0.9,0.9-1.8,1.6-2.5c0.7-0.7,1.5-1.3,2.5-1.7s2-0.6,3.2-0.6c0.7,0,1.3,0.1,1.9,0.2
				c0.6,0.1,1.1,0.3,1.6,0.5c0.5,0.2,0.9,0.4,1.3,0.7c0.4,0.3,0.8,0.6,1.1,0.9l-2.1,2.4c-0.6-0.5-1.2-0.9-1.8-1.2s-1.3-0.5-2.1-0.5
				c-0.6,0-1.2,0.1-1.8,0.4c-0.5,0.2-1,0.6-1.4,1c-0.4,0.4-0.7,0.9-0.9,1.5s-0.3,1.2-0.3,1.8v0c0,0.6,0.1,1.3,0.3,1.8
				s0.5,1.1,0.9,1.5s0.8,0.8,1.4,1c0.5,0.3,1.1,0.4,1.8,0.4c0.9,0,1.6-0.2,2.2-0.5s1.2-0.7,1.8-1.3l2.1,2.1
				c-0.4,0.4-0.8,0.8-1.2,1.1c-0.4,0.3-0.9,0.6-1.4,0.8c-0.5,0.2-1,0.4-1.6,0.5C42.4,38.8,41.7,38.9,41,38.9z"/>
			<path class="st7" d="M56.8,38.9c-1.1,0-2.1-0.2-3.1-0.6c-0.9-0.4-1.8-0.9-2.5-1.6c-0.7-0.7-1.2-1.5-1.6-2.5c-0.4-0.9-0.6-2-0.6-3
				v0c0-1.1,0.2-2.1,0.6-3c0.4-0.9,0.9-1.8,1.6-2.5c0.7-0.7,1.5-1.3,2.5-1.7s2-0.6,3.2-0.6c0.7,0,1.3,0.1,1.9,0.2
				c0.6,0.1,1.1,0.3,1.6,0.5c0.5,0.2,0.9,0.4,1.3,0.7c0.4,0.3,0.8,0.6,1.1,0.9l-2.1,2.4c-0.6-0.5-1.2-0.9-1.8-1.2s-1.3-0.5-2.1-0.5
				c-0.6,0-1.2,0.1-1.8,0.4c-0.5,0.2-1,0.6-1.4,1c-0.4,0.4-0.7,0.9-0.9,1.5s-0.3,1.2-0.3,1.8v0c0,0.6,0.1,1.3,0.3,1.8
				s0.5,1.1,0.9,1.5s0.8,0.8,1.4,1c0.5,0.3,1.1,0.4,1.8,0.4c0.9,0,1.6-0.2,2.2-0.5s1.2-0.7,1.8-1.3l2.1,2.1
				c-0.4,0.4-0.8,0.8-1.2,1.1c-0.4,0.3-0.9,0.6-1.4,0.8c-0.5,0.2-1,0.4-1.6,0.5C58.2,38.8,57.6,38.9,56.8,38.9z"/>
			<path class="st7" d="M65.6,23.6H77v2.9h-8.1v3.1H76v2.9h-7.1v3.2h8.2v2.9H65.6V23.6z"/>
			<path class="st7" d="M85.4,38.9c-1.1,0-2.3-0.2-3.4-0.6c-1.1-0.4-2.1-1-3-1.8l2-2.3c0.7,0.6,1.4,1,2.1,1.3
				c0.7,0.3,1.5,0.5,2.4,0.5c0.7,0,1.2-0.1,1.6-0.4c0.4-0.3,0.6-0.6,0.6-1v0c0-0.2,0-0.4-0.1-0.6c-0.1-0.2-0.2-0.3-0.5-0.5
				c-0.2-0.1-0.5-0.3-0.9-0.4c-0.4-0.1-0.9-0.3-1.5-0.5c-0.8-0.2-1.4-0.4-2.1-0.6c-0.6-0.2-1.1-0.5-1.6-0.8c-0.4-0.3-0.8-0.8-1-1.3
				c-0.2-0.5-0.4-1.1-0.4-1.9v0c0-0.7,0.1-1.3,0.4-1.9c0.3-0.6,0.6-1,1.1-1.4s1-0.7,1.7-0.9s1.4-0.3,2.1-0.3c1.1,0,2.1,0.2,3,0.5
				c0.9,0.3,1.8,0.8,2.5,1.4l-1.7,2.5c-0.7-0.5-1.3-0.8-2-1.1c-0.6-0.3-1.3-0.4-1.9-0.4c-0.6,0-1.1,0.1-1.5,0.4s-0.5,0.6-0.5,0.9v0
				c0,0.2,0,0.5,0.1,0.6c0.1,0.2,0.3,0.3,0.5,0.5c0.2,0.1,0.6,0.3,1,0.4c0.4,0.1,1,0.3,1.6,0.5c0.8,0.2,1.4,0.4,2,0.7
				s1.1,0.6,1.5,0.9c0.4,0.4,0.7,0.8,0.9,1.2c0.2,0.5,0.3,1,0.3,1.7v0c0,0.7-0.1,1.4-0.4,2c-0.3,0.6-0.6,1.1-1.1,1.5
				c-0.5,0.4-1.1,0.7-1.7,0.9C87,38.8,86.2,38.9,85.4,38.9z"/>
			<path class="st7" d="M99.2,38.9c-1.1,0-2.3-0.2-3.4-0.6c-1.1-0.4-2.1-1-3-1.8l2-2.3c0.7,0.6,1.4,1,2.1,1.3
				c0.7,0.3,1.5,0.5,2.4,0.5c0.7,0,1.2-0.1,1.6-0.4c0.4-0.3,0.6-0.6,0.6-1v0c0-0.2,0-0.4-0.1-0.6c-0.1-0.2-0.2-0.3-0.5-0.5
				c-0.2-0.1-0.5-0.3-0.9-0.4c-0.4-0.1-0.9-0.3-1.5-0.5c-0.8-0.2-1.4-0.4-2.1-0.6c-0.6-0.2-1.1-0.5-1.6-0.8c-0.4-0.3-0.8-0.8-1-1.3
				c-0.2-0.5-0.4-1.1-0.4-1.9v0c0-0.7,0.1-1.3,0.4-1.9c0.3-0.6,0.6-1,1.1-1.4s1-0.7,1.7-0.9s1.4-0.3,2.1-0.3c1.1,0,2.1,0.2,3,0.5
				c0.9,0.3,1.8,0.8,2.5,1.4l-1.7,2.5c-0.7-0.5-1.3-0.8-2-1.1c-0.6-0.3-1.3-0.4-1.9-0.4c-0.6,0-1.1,0.1-1.5,0.4s-0.5,0.6-0.5,0.9v0
				c0,0.2,0,0.5,0.1,0.6c0.1,0.2,0.3,0.3,0.5,0.5c0.2,0.1,0.6,0.3,1,0.4c0.4,0.1,1,0.3,1.6,0.5c0.8,0.2,1.4,0.4,2,0.7
				s1.1,0.6,1.5,0.9c0.4,0.4,0.7,0.8,0.9,1.2c0.2,0.5,0.3,1,0.3,1.7v0c0,0.7-0.1,1.4-0.4,2c-0.3,0.6-0.6,1.1-1.1,1.5
				c-0.5,0.4-1.1,0.7-1.7,0.9C100.7,38.8,100,38.9,99.2,38.9z"/>
			<path class="st7" d="M107.7,23.6h3.3v15h-3.3V23.6z"/>
			<path class="st7" d="M114.8,23.6h7c1.7,0,3,0.4,3.9,1.3c0.7,0.7,1,1.5,1,2.6v0c0,0.4-0.1,0.8-0.2,1.1c-0.1,0.3-0.2,0.6-0.4,0.9
				c-0.2,0.3-0.4,0.5-0.6,0.7c-0.2,0.2-0.5,0.4-0.8,0.5c0.9,0.3,1.6,0.8,2.1,1.3c0.5,0.6,0.7,1.4,0.7,2.4v0c0,0.7-0.1,1.3-0.4,1.8
				c-0.3,0.5-0.6,0.9-1.1,1.3s-1.1,0.6-1.8,0.8s-1.5,0.3-2.3,0.3h-7.1V23.6z M123.5,28c0-0.5-0.2-0.9-0.6-1.2
				c-0.4-0.3-0.9-0.4-1.6-0.4H118v3.2h3.1c0.7,0,1.3-0.1,1.7-0.4C123.2,29,123.5,28.6,123.5,28L123.5,28z M124.3,34.1
				c0-0.5-0.2-0.9-0.6-1.2s-1-0.4-1.9-0.4H118v3.3h3.9c0.7,0,1.3-0.1,1.7-0.4C124.1,35.1,124.3,34.7,124.3,34.1L124.3,34.1z"/>
			<path class="st7" d="M130.3,23.6h3.3v12h7.5v3h-10.8V23.6z"/>
			<path class="st7" d="M143.6,23.6H155v2.9h-8.1v3.1h7.1v2.9h-7.1v3.2h8.2v2.9h-11.4V23.6z"/>
		</g>
	</g>
</g>
<g id="Body_Copy">
</g>
<g id="Business_1_">
</g>
<g id="Early_Education">
</g>
<g id="IT_Security">
</g>
<g id="Human_Services">
</g>
<g id="Video">
	<g id="Layer_15" class="st0">
	</g>
	<g id="Layer_14">
	</g>
</g>
<g id="NAVIGATION">
</g>
</svg>
