<?xml version="1.0" encoding="utf-8"?>
<!-- Generator: Adobe Illustrator 19.1.0, SVG Export Plug-In . SVG Version: 6.00 Build 0)  -->
<svg version="1.1" xmlns="http://www.w3.org/2000/svg" xmlns:xlink="http://www.w3.org/1999/xlink" x="0px" y="0px"
	 viewBox="0 0 232 105" style="enable-background:new 0 0 232 105;" xml:space="preserve">
<style type="text/css">
	.st0{display:none;}
	.st1{fill:#2D2E33;}
	.st2{fill:#FFFFFF;}
	.st3{opacity:0.1;enable-background:new    ;}
	.st4{fill:#FF0000;}
	.st5{fill:#25408E;}
	.st6{clip-path:url(#SVGID_2_);}
	.st7{fill:#F3C51F;}
	.st8{fill:#F2F2F2;}
	.st9{fill:#F2C41F;}
	.st10{display:none;fill:none;}
	.st11{fill:none;stroke:#F2F2F2;stroke-miterlimit:10;}
	.st12{fill:#231F20;}
	.st13{clip-path:url(#SVGID_6_);}
	.st14{clip-path:url(#SVGID_8_);}
	.st15{opacity:0.6;clip-path:url(#SVGID_12_);}
	.st16{clip-path:url(#SVGID_14_);fill:#F3C51F;}
	.st17{clip-path:url(#SVGID_16_);}
	.st18{clip-path:url(#SVGID_18_);}
	.st19{clip-path:url(#SVGID_20_);}
	.st20{opacity:0.6;clip-path:url(#SVGID_22_);}
	.st21{clip-path:url(#SVGID_24_);fill:#F3C51F;}
	.st22{clip-path:url(#SVGID_26_);}
	.st23{clip-path:url(#SVGID_28_);}
	.st24{clip-path:url(#SVGID_30_);}
	.st25{opacity:0.6;clip-path:url(#SVGID_32_);}
	.st26{clip-path:url(#SVGID_34_);fill:#F3C51F;}
	.st27{clip-path:url(#SVGID_36_);}
	.st28{clip-path:url(#SVGID_38_);}
	.st29{opacity:0.6;clip-path:url(#SVGID_40_);}
	.st30{clip-path:url(#SVGID_42_);fill:#F3C51F;}
	.st31{clip-path:url(#SVGID_44_);}
	.st32{clip-path:url(#SVGID_46_);}
	.st33{opacity:0.6;clip-path:url(#SVGID_48_);}
	.st34{clip-path:url(#SVGID_50_);fill:#F3C51F;}
	.st35{clip-path:url(#SVGID_52_);}
	.st36{clip-path:url(#SVGID_54_);}
	.st37{display:inline;}
	.st38{display:inline;opacity:0.6;clip-path:url(#SVGID_56_);}
	.st39{clip-path:url(#SVGID_58_);fill:#F3C51F;}
	.st40{clip-path:url(#SVGID_60_);}
	.st41{opacity:0.6;clip-path:url(#SVGID_60_);}
	.st42{clip-path:url(#SVGID_62_);fill:#F3C51F;}
	.st43{clip-path:url(#SVGID_64_);}
	.st44{clip-path:url(#SVGID_66_);}
	.st45{opacity:0.6;clip-path:url(#SVGID_70_);}
	.st46{clip-path:url(#SVGID_72_);fill:#F3C51F;}
	.st47{display:inline;clip-path:url(#SVGID_74_);}
	.st48{clip-path:url(#SVGID_76_);}
	.st49{opacity:0.6;clip-path:url(#SVGID_80_);}
	.st50{clip-path:url(#SVGID_82_);fill:#F3C51F;}
	.st51{display:inline;opacity:0.6;clip-path:url(#SVGID_84_);}
	.st52{clip-path:url(#SVGID_86_);fill:#F3C51F;}
	.st53{clip-path:url(#SVGID_88_);}
	.st54{clip-path:url(#SVGID_90_);}
	.st55{clip-path:url(#SVGID_92_);}
	.st56{opacity:0.6;clip-path:url(#SVGID_94_);}
	.st57{clip-path:url(#SVGID_96_);fill:#F3C51F;}
	.st58{clip-path:url(#SVGID_98_);}
	.st59{clip-path:url(#SVGID_100_);}
	.st60{opacity:0.6;clip-path:url(#SVGID_104_);}
	.st61{clip-path:url(#SVGID_106_);fill:#F3C51F;}
	.st62{clip-path:url(#SVGID_108_);}
	.st63{opacity:0.6;clip-path:url(#SVGID_108_);}
	.st64{clip-path:url(#SVGID_110_);fill:#F3C51F;}
	.st65{clip-path:url(#SVGID_112_);}
	.st66{clip-path:url(#SVGID_114_);}
	.st67{opacity:0.6;clip-path:url(#SVGID_118_);}
	.st68{clip-path:url(#SVGID_120_);fill:#F3C51F;}
	.st69{clip-path:url(#SVGID_122_);}
	.st70{clip-path:url(#SVGID_124_);}
	.st71{opacity:0.6;clip-path:url(#SVGID_128_);}
	.st72{clip-path:url(#SVGID_130_);fill:#F3C51F;}
	.st73{clip-path:url(#SVGID_132_);}
	.st74{clip-path:url(#SVGID_134_);}
	.st75{opacity:0.6;clip-path:url(#SVGID_138_);}
	.st76{clip-path:url(#SVGID_140_);fill:#F3C51F;}
	.st77{clip-path:url(#SVGID_142_);}
	.st78{clip-path:url(#SVGID_144_);}
	.st79{opacity:0.6;clip-path:url(#SVGID_148_);}
	.st80{clip-path:url(#SVGID_150_);fill:#F3C51F;}
	.st81{clip-path:url(#SVGID_152_);}
	.st82{clip-path:url(#SVGID_154_);}
	.st83{opacity:0.6;clip-path:url(#SVGID_156_);}
	.st84{clip-path:url(#SVGID_158_);fill:#F3C51F;}
	.st85{clip-path:url(#SVGID_160_);}
	.st86{clip-path:url(#SVGID_162_);}
	.st87{opacity:0.6;clip-path:url(#SVGID_166_);}
	.st88{clip-path:url(#SVGID_168_);fill:#F3C51F;}
	.st89{clip-path:url(#SVGID_170_);}
	.st90{clip-path:url(#SVGID_172_);}
	.st91{opacity:0.6;clip-path:url(#SVGID_176_);}
	.st92{clip-path:url(#SVGID_178_);fill:#F3C51F;}
	.st93{clip-path:url(#SVGID_180_);}
	.st94{clip-path:url(#SVGID_182_);}
	.st95{opacity:0.6;clip-path:url(#SVGID_184_);}
	.st96{clip-path:url(#SVGID_186_);fill:#F3C51F;}
	.st97{clip-path:url(#SVGID_188_);}
	.st98{clip-path:url(#SVGID_190_);}
	.st99{clip-path:url(#SVGID_192_);}
	.st100{opacity:0.6;clip-path:url(#SVGID_194_);}
	.st101{clip-path:url(#SVGID_196_);fill:#F3C51F;}
	.st102{opacity:0.27;clip-path:url(#SVGID_200_);}
	.st103{clip-path:url(#SVGID_202_);fill:#0C0C0E;}
	.st104{fill:none;stroke:#25408E;stroke-width:2.8453;}
	.st105{opacity:0.27;clip-path:url(#SVGID_206_);}
	.st106{clip-path:url(#SVGID_208_);fill:#0C0C0E;}
	.st107{opacity:0.27;clip-path:url(#SVGID_212_);}
	.st108{clip-path:url(#SVGID_214_);fill:#0C0C0E;}
	.st109{fill:none;stroke:#25408E;stroke-width:5.6905;}
	.st110{clip-path:url(#SVGID_216_);fill:#25408E;}
	.st111{opacity:0.85;clip-path:url(#SVGID_218_);}
	.st112{clip-path:url(#SVGID_220_);fill:#F3C51F;}
	.st113{clip-path:url(#SVGID_218_);}
</style>
<g id="Guides" class="st0">
</g>
<g id="AFFORDABLE">
</g>
<g id="Footer">
</g>
<g id="_x31_2_Col_Grid" class="st3">
</g>
<g id="Divider_Bars">
</g>
<g id="Request_Info">
</g>
<g id="ACCESSIBLE">
</g>
<g id="Scholarships">
</g>
<g id="ONLINE">
</g>
<g id="Quick_Facts">
	<rect x="-0.1" y="-0.3" class="st1" width="232.2" height="105.5"/>
	<g>
		<path class="st2" d="M149.6,53.8c-6.1,0-11.1,5-11.1,11.1c0,6.1,5,11.1,11.1,11.1H201c3.1,0,6.1-1.3,8.2-3.7
			c3.2-2.9,4.9-6.8,4.9-10.9c0-8-6.5-14.6-14.6-14.6c-1.5,0-3,0.2-4.5,0.7c-0.5,0.2-1,0.1-1.5-0.2c-0.4-0.3-0.7-0.8-0.8-1.3
			c-1-9.8-9.1-17.2-19-17.2c-10.5,0-19.1,8.6-19.1,19.1c0,1.3,0.1,2.5,0.4,3.7c0.1,0.5,0,1-0.4,1.4c-0.3,0.4-0.8,0.6-1.3,0.6H149.6z
			 M201,79.5h-51.4c-8,0-14.6-6.5-14.6-14.6c0-8,6.5-14.6,14.6-14.6h1.9c-0.1-0.8-0.1-1.6-0.1-2.3c0-12.4,10.1-22.5,22.5-22.5
			c11,0,20.2,7.7,22.1,18.3c1.2-0.2,2.4-0.4,3.6-0.4c10,0,18,8.1,18,18c0,5.1-2.2,9.9-5.9,13.4C209,77.8,205.1,79.5,201,79.5"/>
	</g>
	<g>
		<g>
			<path class="st7" d="M25.2,42.9c-1.3,0-2.5-0.2-3.6-0.7c-1.1-0.5-2-1.1-2.8-1.8c-0.8-0.8-1.4-1.7-1.8-2.7c-0.4-1-0.7-2.2-0.7-3.4
				v0c0-1.2,0.2-2.3,0.7-3.4c0.4-1,1.1-2,1.9-2.8c0.8-0.8,1.7-1.4,2.8-1.9s2.3-0.7,3.6-0.7c1.3,0,2.5,0.2,3.6,0.7s2,1.1,2.8,1.8
				c0.8,0.8,1.4,1.7,1.8,2.7c0.4,1,0.7,2.2,0.7,3.4v0c0,1.2-0.2,2.3-0.7,3.4c-0.4,1-1.1,2-1.9,2.8c-0.8,0.8-1.7,1.4-2.8,1.9
				C27.7,42.7,26.5,42.9,25.2,42.9z M25.2,39.5c0.7,0,1.4-0.1,2-0.4c0.6-0.3,1.2-0.6,1.6-1.1c0.4-0.5,0.8-1,1-1.7
				c0.2-0.6,0.4-1.3,0.4-2v0c0-0.7-0.1-1.4-0.4-2c-0.2-0.6-0.6-1.2-1.1-1.7c-0.5-0.5-1-0.9-1.6-1.1c-0.6-0.3-1.3-0.4-2-0.4
				c-0.8,0-1.4,0.1-2.1,0.4c-0.6,0.3-1.1,0.6-1.6,1.1c-0.4,0.5-0.8,1-1,1.7s-0.4,1.3-0.4,2v0c0,0.7,0.1,1.4,0.4,2
				c0.2,0.6,0.6,1.2,1.1,1.7c0.5,0.5,1,0.9,1.6,1.1C23.8,39.4,24.5,39.5,25.2,39.5z"/>
			<path class="st7" d="M39.8,25.8h3.4l7.9,10.3V25.8h3.6v16.8h-3.1L43.4,32v10.7h-3.6V25.8z"/>
			<path class="st7" d="M61.1,25.8h3.7v13.4h8.4v3.4H61.1V25.8z"/>
			<path class="st7" d="M78.5,25.8h3.7v16.8h-3.7V25.8z"/>
			<path class="st7" d="M88.7,25.8h3.4l7.9,10.3V25.8h3.6v16.8h-3.1L92.4,32v10.7h-3.6V25.8z"/>
			<path class="st7" d="M110,25.8h12.6v3.3h-9v3.4h7.9v3.3h-7.9v3.5h9.1v3.3H110V25.8z"/>
		</g>
		<g>
			<path class="st2" d="M23.1,63.5c-1,0-1.9-0.2-2.7-0.5s-1.6-0.8-2.2-1.4c-0.6-0.6-1.1-1.3-1.4-2.2s-0.5-1.7-0.5-2.7v0
				c0-0.9,0.2-1.8,0.5-2.7s0.8-1.6,1.4-2.2c0.6-0.6,1.3-1.1,2.2-1.5c0.8-0.4,1.8-0.5,2.8-0.5c0.6,0,1.2,0.1,1.7,0.2
				c0.5,0.1,1,0.2,1.4,0.4s0.8,0.4,1.2,0.6c0.4,0.3,0.7,0.5,1,0.8L26.5,54c-0.5-0.5-1-0.8-1.6-1.1c-0.5-0.3-1.1-0.4-1.8-0.4
				c-0.6,0-1.1,0.1-1.5,0.3c-0.5,0.2-0.9,0.5-1.2,0.9c-0.3,0.4-0.6,0.8-0.8,1.3s-0.3,1-0.3,1.6v0c0,0.6,0.1,1.1,0.3,1.6
				c0.2,0.5,0.5,0.9,0.8,1.3c0.3,0.4,0.7,0.7,1.2,0.9c0.5,0.2,1,0.3,1.6,0.3c0.8,0,1.4-0.1,1.9-0.4s1-0.7,1.6-1.1l1.9,1.9
				c-0.3,0.4-0.7,0.7-1.1,1s-0.8,0.5-1.2,0.7s-0.9,0.4-1.4,0.5C24.3,63.4,23.7,63.5,23.1,63.5z"/>
			<path class="st2" d="M39,63.5c-1,0-2-0.2-2.8-0.5s-1.6-0.8-2.2-1.5c-0.6-0.6-1.1-1.3-1.5-2.2c-0.3-0.8-0.5-1.7-0.5-2.7v0
				c0-0.9,0.2-1.8,0.5-2.7c0.4-0.8,0.8-1.6,1.5-2.2c0.6-0.6,1.4-1.1,2.2-1.5s1.8-0.5,2.8-0.5s2,0.2,2.8,0.5c0.9,0.4,1.6,0.8,2.2,1.5
				c0.6,0.6,1.1,1.3,1.5,2.2c0.3,0.8,0.5,1.7,0.5,2.7v0c0,0.9-0.2,1.8-0.5,2.7c-0.4,0.8-0.8,1.6-1.5,2.2c-0.6,0.6-1.4,1.1-2.2,1.5
				S40,63.5,39,63.5z M39,60.8c0.6,0,1.1-0.1,1.6-0.3s0.9-0.5,1.3-0.9c0.3-0.4,0.6-0.8,0.8-1.3c0.2-0.5,0.3-1,0.3-1.6v0
				c0-0.6-0.1-1.1-0.3-1.6s-0.5-0.9-0.8-1.3s-0.8-0.7-1.3-0.9c-0.5-0.2-1-0.3-1.6-0.3c-0.6,0-1.1,0.1-1.6,0.3
				c-0.5,0.2-0.9,0.5-1.2,0.9c-0.3,0.4-0.6,0.8-0.8,1.3S35,56,35,56.6v0c0,0.6,0.1,1.1,0.3,1.6c0.2,0.5,0.5,0.9,0.8,1.3
				c0.4,0.4,0.8,0.7,1.3,0.9C37.9,60.7,38.4,60.8,39,60.8z"/>
			<path class="st2" d="M56.4,63.5c-1.8,0-3.2-0.5-4.2-1.5s-1.5-2.5-1.5-4.4V50h2.9v7.5c0,1.1,0.3,1.9,0.8,2.4
				c0.5,0.5,1.2,0.8,2.1,0.8c0.9,0,1.6-0.3,2.1-0.8c0.5-0.5,0.8-1.3,0.8-2.4V50h2.9v7.5c0,1-0.1,1.9-0.4,2.6s-0.7,1.4-1.2,1.9
				c-0.5,0.5-1.1,0.9-1.8,1.1C58.1,63.3,57.3,63.5,56.4,63.5z"/>
			<path class="st2" d="M67.5,50h6.1c1.7,0,3,0.4,3.9,1.3c0.8,0.8,1.1,1.8,1.1,3v0c0,1.1-0.3,1.9-0.8,2.6c-0.5,0.7-1.2,1.2-2.1,1.5
				l3.2,4.7h-3.4L72.7,59h-2.3v4.2h-2.9V50z M73.4,56.4c0.7,0,1.3-0.2,1.7-0.5c0.4-0.3,0.6-0.8,0.6-1.4v0c0-0.6-0.2-1.1-0.6-1.4
				s-1-0.5-1.7-0.5h-2.9v3.8H73.4z"/>
			<path class="st2" d="M88.1,63.4c-1,0-2-0.2-3-0.5s-1.9-0.9-2.6-1.6l1.7-2.1c0.6,0.5,1.2,0.9,1.9,1.2c0.6,0.3,1.3,0.4,2.1,0.4
				c0.6,0,1.1-0.1,1.4-0.3s0.5-0.5,0.5-0.9v0c0-0.2,0-0.4-0.1-0.5c-0.1-0.1-0.2-0.3-0.4-0.4s-0.5-0.3-0.8-0.4
				c-0.3-0.1-0.8-0.3-1.4-0.4c-0.7-0.2-1.3-0.3-1.8-0.5c-0.5-0.2-1-0.5-1.4-0.7c-0.4-0.3-0.7-0.7-0.9-1.1c-0.2-0.4-0.3-1-0.3-1.6v0
				c0-0.6,0.1-1.2,0.3-1.6c0.2-0.5,0.5-0.9,0.9-1.3c0.4-0.4,0.9-0.6,1.5-0.8c0.6-0.2,1.2-0.3,1.9-0.3c1,0,1.9,0.1,2.7,0.4
				c0.8,0.3,1.6,0.7,2.2,1.2L91,53.7c-0.6-0.4-1.2-0.7-1.7-1c-0.6-0.2-1.1-0.3-1.7-0.3c-0.6,0-1,0.1-1.3,0.3
				c-0.3,0.2-0.4,0.5-0.4,0.8v0c0,0.2,0,0.4,0.1,0.6c0.1,0.2,0.2,0.3,0.4,0.4s0.5,0.2,0.9,0.4c0.4,0.1,0.8,0.2,1.4,0.4
				c0.7,0.2,1.3,0.4,1.8,0.6s1,0.5,1.3,0.8c0.4,0.3,0.6,0.7,0.8,1.1c0.2,0.4,0.3,0.9,0.3,1.5v0c0,0.7-0.1,1.2-0.4,1.7
				s-0.6,0.9-1,1.3c-0.4,0.3-0.9,0.6-1.5,0.8C89.5,63.4,88.8,63.4,88.1,63.4z"/>
			<path class="st2" d="M97.8,50h10v2.6h-7.1v2.7h6.2v2.6h-6.2v2.8h7.2v2.6H97.8V50z"/>
			<path class="st2" d="M117.4,63.4c-1,0-2-0.2-3-0.5c-1-0.3-1.9-0.9-2.6-1.6l1.7-2.1c0.6,0.5,1.2,0.9,1.9,1.2s1.3,0.4,2.1,0.4
				c0.6,0,1.1-0.1,1.4-0.3c0.3-0.2,0.5-0.5,0.5-0.9v0c0-0.2,0-0.4-0.1-0.5c-0.1-0.1-0.2-0.3-0.4-0.4c-0.2-0.1-0.5-0.3-0.8-0.4
				c-0.3-0.1-0.8-0.3-1.4-0.4c-0.7-0.2-1.3-0.3-1.8-0.5c-0.5-0.2-1-0.5-1.4-0.7c-0.4-0.3-0.7-0.7-0.9-1.1c-0.2-0.4-0.3-1-0.3-1.6v0
				c0-0.6,0.1-1.2,0.3-1.6c0.2-0.5,0.5-0.9,0.9-1.3c0.4-0.4,0.9-0.6,1.5-0.8c0.6-0.2,1.2-0.3,1.9-0.3c1,0,1.9,0.1,2.7,0.4
				c0.8,0.3,1.6,0.7,2.2,1.2l-1.5,2.2c-0.6-0.4-1.2-0.7-1.7-1c-0.6-0.2-1.1-0.3-1.7-0.3c-0.6,0-1,0.1-1.3,0.3s-0.4,0.5-0.4,0.8v0
				c0,0.2,0,0.4,0.1,0.6c0.1,0.2,0.2,0.3,0.4,0.4c0.2,0.1,0.5,0.2,0.9,0.4c0.4,0.1,0.8,0.2,1.4,0.4c0.7,0.2,1.3,0.4,1.8,0.6
				s1,0.5,1.3,0.8c0.4,0.3,0.6,0.7,0.8,1.1c0.2,0.4,0.3,0.9,0.3,1.5v0c0,0.7-0.1,1.2-0.4,1.7s-0.6,0.9-1,1.3
				c-0.4,0.3-0.9,0.6-1.5,0.8C118.8,63.4,118.2,63.4,117.4,63.4z"/>
		</g>
		<g>
			<path class="st9" d="M19.3,78.8h-3.4v-2.6h3.4v-3.4H22v3.4h3.4v2.6H22v3.4h-2.7V78.8z"/>
		</g>
		<g>
			<path class="st2" d="M28.7,70.9h5.2c1,0,2,0.2,2.8,0.5s1.6,0.8,2.2,1.4c0.6,0.6,1.1,1.3,1.4,2.1c0.3,0.8,0.5,1.7,0.5,2.6v0
				c0,0.9-0.2,1.8-0.5,2.6c-0.3,0.8-0.8,1.5-1.4,2.1c-0.6,0.6-1.4,1.1-2.2,1.4s-1.8,0.5-2.8,0.5h-5.2V70.9z M31.6,73.6v7.9h2.2
				c0.6,0,1.1-0.1,1.6-0.3c0.5-0.2,0.9-0.5,1.3-0.8c0.3-0.4,0.6-0.8,0.8-1.2c0.2-0.5,0.3-1,0.3-1.6v0c0-0.6-0.1-1.1-0.3-1.6
				s-0.5-0.9-0.8-1.3c-0.3-0.4-0.8-0.6-1.3-0.8c-0.5-0.2-1-0.3-1.6-0.3H31.6z"/>
			<path class="st2" d="M44,70.9h10v2.6h-7.1v2.7h6.2v2.6h-6.2v2.8h7.2v2.6H44V70.9z"/>
			<path class="st2" d="M63.5,84.4c-1,0-2-0.2-2.8-0.5c-0.9-0.3-1.6-0.8-2.2-1.4c-0.6-0.6-1.1-1.3-1.4-2.2c-0.3-0.8-0.5-1.7-0.5-2.7
				v0c0-0.9,0.2-1.8,0.5-2.7c0.3-0.8,0.8-1.6,1.4-2.2c0.6-0.6,1.3-1.1,2.2-1.5c0.8-0.4,1.8-0.5,2.8-0.5c0.6,0,1.1,0,1.6,0.1
				s0.9,0.2,1.4,0.3c0.4,0.2,0.8,0.3,1.2,0.6c0.4,0.2,0.7,0.5,1.1,0.8l-1.8,2.2c-0.3-0.2-0.5-0.4-0.8-0.6c-0.3-0.2-0.5-0.3-0.8-0.4
				c-0.3-0.1-0.6-0.2-0.9-0.3c-0.3-0.1-0.7-0.1-1-0.1c-0.5,0-1,0.1-1.5,0.3c-0.5,0.2-0.9,0.5-1.2,0.9c-0.3,0.4-0.6,0.8-0.8,1.3
				s-0.3,1-0.3,1.6v0c0,0.6,0.1,1.2,0.3,1.7s0.5,1,0.8,1.3c0.4,0.4,0.8,0.7,1.3,0.9c0.5,0.2,1,0.3,1.6,0.3c1.1,0,2-0.3,2.7-0.8v-1.9
				h-2.9v-2.5h5.8v5.8c-0.7,0.6-1.5,1.1-2.4,1.5S64.7,84.4,63.5,84.4z"/>
			<path class="st2" d="M72.6,70.9h6.1c1.7,0,3,0.4,3.9,1.3c0.8,0.8,1.1,1.8,1.1,3v0c0,1.1-0.3,1.9-0.8,2.6
				c-0.5,0.7-1.2,1.2-2.1,1.5l3.2,4.7h-3.4l-2.8-4.2h-2.3v4.2h-2.9V70.9z M78.5,77.4c0.7,0,1.3-0.2,1.7-0.5s0.6-0.8,0.6-1.4v0
				c0-0.6-0.2-1.1-0.6-1.4c-0.4-0.3-1-0.5-1.7-0.5h-2.9v3.8H78.5z"/>
			<path class="st2" d="M86.9,70.9h10v2.6h-7.1v2.7H96v2.6h-6.2v2.8H97v2.6H86.9V70.9z"/>
			<path class="st2" d="M100.3,70.9h10v2.6h-7.1v2.7h6.2v2.6h-6.2v2.8h7.2v2.6h-10.1V70.9z"/>
			<path class="st2" d="M118.2,84.4c-1,0-2-0.2-3-0.5c-1-0.3-1.9-0.9-2.6-1.6l1.7-2.1c0.6,0.5,1.2,0.9,1.9,1.2s1.3,0.4,2.1,0.4
				c0.6,0,1.1-0.1,1.4-0.3c0.3-0.2,0.5-0.5,0.5-0.9v0c0-0.2,0-0.4-0.1-0.5c-0.1-0.1-0.2-0.3-0.4-0.4c-0.2-0.1-0.5-0.3-0.8-0.4
				c-0.3-0.1-0.8-0.3-1.4-0.4c-0.7-0.2-1.3-0.3-1.8-0.5c-0.5-0.2-1-0.5-1.4-0.7c-0.4-0.3-0.7-0.7-0.9-1.1c-0.2-0.4-0.3-1-0.3-1.6v0
				c0-0.6,0.1-1.2,0.3-1.6c0.2-0.5,0.5-0.9,0.9-1.3c0.4-0.4,0.9-0.6,1.5-0.8c0.6-0.2,1.2-0.3,1.9-0.3c1,0,1.9,0.1,2.7,0.4
				c0.8,0.3,1.6,0.7,2.2,1.2l-1.5,2.2c-0.6-0.4-1.2-0.7-1.7-1c-0.6-0.2-1.1-0.3-1.7-0.3c-0.6,0-1,0.1-1.3,0.3s-0.4,0.5-0.4,0.8v0
				c0,0.2,0,0.4,0.1,0.6c0.1,0.2,0.2,0.3,0.4,0.4c0.2,0.1,0.5,0.2,0.9,0.4c0.4,0.1,0.8,0.2,1.4,0.4c0.7,0.2,1.3,0.4,1.8,0.6
				s1,0.5,1.3,0.8c0.4,0.3,0.6,0.7,0.8,1.1c0.2,0.4,0.3,0.9,0.3,1.5v0c0,0.7-0.1,1.2-0.4,1.7s-0.6,0.9-1,1.3
				c-0.4,0.3-0.9,0.6-1.5,0.8C119.6,84.3,119,84.4,118.2,84.4z"/>
		</g>
	</g>
</g>
<g id="Body_Copy">
</g>
<g id="Business_1_">
</g>
<g id="Early_Education">
</g>
<g id="IT_Security">
</g>
<g id="Human_Services">
</g>
<g id="Video">
	<g id="Layer_15" class="st0">
	</g>
	<g id="Layer_14">
	</g>
</g>
<g id="NAVIGATION">
</g>
</svg>
