<?xml version="1.0" encoding="utf-8"?>
<!-- Generator: Adobe Illustrator 19.1.0, SVG Export Plug-In . SVG Version: 6.00 Build 0)  -->
<svg version="1.1" xmlns="http://www.w3.org/2000/svg" xmlns:xlink="http://www.w3.org/1999/xlink" x="0px" y="0px"
	 viewBox="0 0 232 105" style="enable-background:new 0 0 232 105;" xml:space="preserve">
<style type="text/css">
	.st0{display:none;}
	.st1{fill:#2D2E33;}
	.st2{fill:#FFFFFF;}
	.st3{opacity:0.1;enable-background:new    ;}
	.st4{fill:#FF0000;}
	.st5{fill:#25408E;}
	.st6{clip-path:url(#SVGID_2_);}
	.st7{fill:#F3C51F;}
	.st8{fill:#F2F2F2;}
	.st9{fill:#F2C41F;}
	.st10{display:none;fill:none;}
	.st11{font-family:'Gotham-Bold';}
	.st12{font-size:17.5632px;}
	.st13{fill:none;stroke:#F2F2F2;stroke-miterlimit:10;}
	.st14{font-size:12.6725px;}
	.st15{font-size:10.8622px;}
	.st16{fill:#231F20;}
	.st17{clip-path:url(#SVGID_6_);}
	.st18{clip-path:url(#SVGID_8_);}
	.st19{opacity:0.6;clip-path:url(#SVGID_12_);}
	.st20{clip-path:url(#SVGID_14_);fill:#F3C51F;}
	.st21{clip-path:url(#SVGID_16_);}
	.st22{clip-path:url(#SVGID_18_);}
	.st23{clip-path:url(#SVGID_20_);}
	.st24{opacity:0.6;clip-path:url(#SVGID_22_);}
	.st25{clip-path:url(#SVGID_24_);fill:#F3C51F;}
	.st26{clip-path:url(#SVGID_26_);}
	.st27{clip-path:url(#SVGID_28_);}
	.st28{clip-path:url(#SVGID_30_);}
	.st29{opacity:0.6;clip-path:url(#SVGID_32_);}
	.st30{clip-path:url(#SVGID_34_);fill:#F3C51F;}
	.st31{clip-path:url(#SVGID_36_);}
	.st32{clip-path:url(#SVGID_38_);}
	.st33{opacity:0.6;clip-path:url(#SVGID_40_);}
	.st34{clip-path:url(#SVGID_42_);fill:#F3C51F;}
	.st35{clip-path:url(#SVGID_44_);}
	.st36{clip-path:url(#SVGID_46_);}
	.st37{opacity:0.6;clip-path:url(#SVGID_48_);}
	.st38{clip-path:url(#SVGID_50_);fill:#F3C51F;}
	.st39{clip-path:url(#SVGID_52_);}
	.st40{clip-path:url(#SVGID_54_);}
	.st41{display:inline;}
	.st42{display:inline;opacity:0.6;clip-path:url(#SVGID_56_);}
	.st43{clip-path:url(#SVGID_58_);fill:#F3C51F;}
	.st44{clip-path:url(#SVGID_60_);}
	.st45{opacity:0.6;clip-path:url(#SVGID_60_);}
	.st46{clip-path:url(#SVGID_62_);fill:#F3C51F;}
	.st47{clip-path:url(#SVGID_64_);}
	.st48{clip-path:url(#SVGID_66_);}
	.st49{opacity:0.6;clip-path:url(#SVGID_70_);}
	.st50{clip-path:url(#SVGID_72_);fill:#F3C51F;}
	.st51{display:inline;clip-path:url(#SVGID_74_);}
	.st52{clip-path:url(#SVGID_76_);}
	.st53{opacity:0.6;clip-path:url(#SVGID_80_);}
	.st54{clip-path:url(#SVGID_82_);fill:#F3C51F;}
	.st55{display:inline;opacity:0.6;clip-path:url(#SVGID_84_);}
	.st56{clip-path:url(#SVGID_86_);fill:#F3C51F;}
	.st57{clip-path:url(#SVGID_88_);}
	.st58{clip-path:url(#SVGID_90_);}
	.st59{clip-path:url(#SVGID_92_);}
	.st60{opacity:0.6;clip-path:url(#SVGID_94_);}
	.st61{clip-path:url(#SVGID_96_);fill:#F3C51F;}
	.st62{clip-path:url(#SVGID_98_);}
	.st63{clip-path:url(#SVGID_100_);}
	.st64{opacity:0.6;clip-path:url(#SVGID_104_);}
	.st65{clip-path:url(#SVGID_106_);fill:#F3C51F;}
	.st66{clip-path:url(#SVGID_108_);}
	.st67{opacity:0.6;clip-path:url(#SVGID_108_);}
	.st68{clip-path:url(#SVGID_110_);fill:#F3C51F;}
	.st69{clip-path:url(#SVGID_112_);}
	.st70{clip-path:url(#SVGID_114_);}
	.st71{opacity:0.6;clip-path:url(#SVGID_118_);}
	.st72{clip-path:url(#SVGID_120_);fill:#F3C51F;}
	.st73{clip-path:url(#SVGID_122_);}
	.st74{clip-path:url(#SVGID_124_);}
	.st75{opacity:0.6;clip-path:url(#SVGID_128_);}
	.st76{clip-path:url(#SVGID_130_);fill:#F3C51F;}
	.st77{clip-path:url(#SVGID_132_);}
	.st78{clip-path:url(#SVGID_134_);}
	.st79{opacity:0.6;clip-path:url(#SVGID_138_);}
	.st80{clip-path:url(#SVGID_140_);fill:#F3C51F;}
	.st81{clip-path:url(#SVGID_142_);}
	.st82{clip-path:url(#SVGID_144_);}
	.st83{opacity:0.6;clip-path:url(#SVGID_148_);}
	.st84{clip-path:url(#SVGID_150_);fill:#F3C51F;}
	.st85{clip-path:url(#SVGID_152_);}
	.st86{clip-path:url(#SVGID_154_);}
	.st87{opacity:0.6;clip-path:url(#SVGID_156_);}
	.st88{clip-path:url(#SVGID_158_);fill:#F3C51F;}
	.st89{clip-path:url(#SVGID_160_);}
	.st90{clip-path:url(#SVGID_162_);}
	.st91{opacity:0.6;clip-path:url(#SVGID_166_);}
	.st92{clip-path:url(#SVGID_168_);fill:#F3C51F;}
	.st93{clip-path:url(#SVGID_170_);}
	.st94{clip-path:url(#SVGID_172_);}
	.st95{opacity:0.6;clip-path:url(#SVGID_176_);}
	.st96{clip-path:url(#SVGID_178_);fill:#F3C51F;}
	.st97{clip-path:url(#SVGID_180_);}
	.st98{clip-path:url(#SVGID_182_);}
	.st99{opacity:0.6;clip-path:url(#SVGID_184_);}
	.st100{clip-path:url(#SVGID_186_);fill:#F3C51F;}
	.st101{clip-path:url(#SVGID_188_);}
	.st102{clip-path:url(#SVGID_190_);}
	.st103{clip-path:url(#SVGID_192_);}
	.st104{opacity:0.6;clip-path:url(#SVGID_194_);}
	.st105{clip-path:url(#SVGID_196_);fill:#F3C51F;}
	.st106{opacity:0.27;clip-path:url(#SVGID_200_);}
	.st107{clip-path:url(#SVGID_202_);fill:#0C0C0E;}
	.st108{fill:none;stroke:#25408E;stroke-width:2.8453;}
	.st109{opacity:0.27;clip-path:url(#SVGID_206_);}
	.st110{clip-path:url(#SVGID_208_);fill:#0C0C0E;}
	.st111{opacity:0.27;clip-path:url(#SVGID_212_);}
	.st112{clip-path:url(#SVGID_214_);fill:#0C0C0E;}
	.st113{fill:none;stroke:#25408E;stroke-width:5.6905;}
	.st114{clip-path:url(#SVGID_216_);fill:#25408E;}
	.st115{opacity:0.85;clip-path:url(#SVGID_218_);}
	.st116{clip-path:url(#SVGID_220_);fill:#F3C51F;}
	.st117{clip-path:url(#SVGID_218_);}
</style>
<g id="Guides" class="st0">
</g>
<g id="AFFORDABLE">
</g>
<g id="Footer">
</g>
<g id="_x31_2_Col_Grid" class="st3">
</g>
<g id="Divider_Bars">
</g>
<g id="Request_Info">
</g>
<g id="ACCESSIBLE">
</g>
<g id="Scholarships">
</g>
<g id="ONLINE">
</g>
<g id="Quick_Facts">
	<polygon class="st5" points="232,0 116,0 116,0 0,0 0,105 116,105 116,105 232,105 	"/>
	<text transform="matrix(1 0 0 1 223.5266 60.3728)" class="st7 st11 st12"> </text>
	<g>
		<g>
			<path class="st2" d="M112.3,51.3c-0.4-0.2-0.7-0.4-1.1-0.6c-0.4-0.2-0.7-0.3-1.1-0.4v2.7c1.3,0.4,2.3,0.8,2.9,1.4
				c0.6,0.6,0.9,1.4,0.9,2.3v0c0,0.5-0.1,0.9-0.3,1.3s-0.4,0.7-0.8,1c-0.3,0.3-0.7,0.5-1.2,0.7c-0.5,0.2-1,0.3-1.5,0.4v1.7h-1.8
				v-1.8c-0.8-0.1-1.5-0.3-2.2-0.6c-0.7-0.3-1.4-0.7-1.9-1.1l1.4-2c0.5,0.4,0.9,0.7,1.4,0.9c0.5,0.2,0.9,0.4,1.5,0.5v-2.8
				c-0.6-0.2-1.2-0.4-1.7-0.6c-0.5-0.2-0.9-0.5-1.2-0.8c-0.3-0.3-0.5-0.6-0.7-1c-0.2-0.4-0.2-0.8-0.2-1.4v0c0-0.5,0.1-0.9,0.3-1.3
				s0.4-0.7,0.7-1c0.3-0.3,0.7-0.5,1.2-0.7c0.5-0.2,1-0.3,1.5-0.4v-1h1.8v1.1c0.6,0.1,1.2,0.2,1.7,0.4c0.5,0.2,1,0.5,1.5,0.8
				L112.3,51.3z M107.3,51.2c0,0.3,0.1,0.5,0.2,0.7s0.5,0.4,1,0.6v-2.4c-0.4,0.1-0.7,0.2-0.9,0.4C107.3,50.7,107.3,50.9,107.3,51.2
				L107.3,51.2z M111.4,56.8c0-0.3-0.1-0.5-0.3-0.7c-0.2-0.2-0.5-0.4-1-0.6V58C110.9,57.8,111.4,57.5,111.4,56.8L111.4,56.8z"/>
			<path class="st2" d="M119.3,50.5l-2.1,0.5l-0.6-2.2l3.5-1.1h1.8v12.4h-2.7V50.5z"/>
			<path class="st2" d="M132.1,47.9h2.9l3.2,5.2l3.2-5.2h2.9v12.3h-2.7v-8l-3.5,5.3h-0.1l-3.4-5.2v8h-2.7V47.9z"/>
			<path class="st2" d="M148.9,47.9h2.7v12.3h-2.7V47.9z"/>
			<path class="st2" d="M156.1,47.9h2.7v9.8h6.1v2.5h-8.8V47.9z"/>
			<path class="st2" d="M168.2,47.9h2.7v9.8h6.1v2.5h-8.8V47.9z"/>
			<path class="st2" d="M180.4,47.9h2.7v12.3h-2.7V47.9z"/>
			<path class="st2" d="M193.5,60.4c-0.9,0-1.8-0.2-2.6-0.5c-0.8-0.3-1.5-0.8-2.1-1.4c-0.6-0.6-1-1.2-1.4-2
				c-0.3-0.8-0.5-1.6-0.5-2.5v0c0-0.9,0.2-1.7,0.5-2.5c0.3-0.8,0.8-1.4,1.4-2c0.6-0.6,1.3-1,2.1-1.4c0.8-0.3,1.7-0.5,2.6-0.5
				c0.9,0,1.8,0.2,2.6,0.5c0.8,0.3,1.5,0.8,2.1,1.4c0.6,0.6,1,1.2,1.4,2c0.3,0.8,0.5,1.6,0.5,2.5v0c0,0.9-0.2,1.7-0.5,2.5
				c-0.3,0.8-0.8,1.4-1.4,2c-0.6,0.6-1.3,1-2.1,1.4C195.3,60.2,194.5,60.4,193.5,60.4z M193.5,57.9c0.5,0,1-0.1,1.5-0.3
				c0.5-0.2,0.8-0.5,1.2-0.8s0.6-0.8,0.8-1.2c0.2-0.5,0.3-1,0.3-1.5v0c0-0.5-0.1-1-0.3-1.5c-0.2-0.5-0.4-0.9-0.8-1.2
				c-0.3-0.4-0.7-0.6-1.2-0.8c-0.5-0.2-1-0.3-1.5-0.3c-0.6,0-1.1,0.1-1.5,0.3c-0.5,0.2-0.8,0.5-1.2,0.8c-0.3,0.4-0.6,0.8-0.8,1.2
				c-0.2,0.5-0.3,1-0.3,1.5v0c0,0.5,0.1,1,0.3,1.5c0.2,0.5,0.4,0.9,0.8,1.2s0.7,0.6,1.2,0.8C192.5,57.8,193,57.9,193.5,57.9z"/>
			<path class="st2" d="M203.9,47.9h2.5l5.8,7.6v-7.6h2.7v12.3h-2.3l-6-7.8v7.8h-2.7V47.9z"/>
		</g>
		<text transform="matrix(1 0 0 1 216.5012 57.1797)" class="st7 st11 st12"> </text>
		<g>
			<g>
				<path class="st7" d="M23.4,40.7c-1.3,0-2.5-0.2-3.8-0.7c-1.2-0.4-2.4-1.1-3.4-2l2.2-2.6c0.8,0.6,1.6,1.1,2.4,1.5
					c0.8,0.4,1.7,0.6,2.7,0.6c0.8,0,1.4-0.1,1.8-0.4c0.4-0.3,0.6-0.7,0.6-1.2v0c0-0.2,0-0.5-0.1-0.6c-0.1-0.2-0.3-0.4-0.5-0.5
					s-0.6-0.3-1-0.5c-0.4-0.2-1-0.3-1.7-0.5c-0.8-0.2-1.6-0.4-2.3-0.7c-0.7-0.3-1.3-0.6-1.8-0.9c-0.5-0.4-0.9-0.8-1.1-1.4
					c-0.3-0.6-0.4-1.3-0.4-2.1v0c0-0.8,0.1-1.5,0.4-2.1s0.7-1.1,1.2-1.6c0.5-0.4,1.1-0.8,1.9-1c0.7-0.2,1.5-0.4,2.4-0.4
					c1.2,0,2.4,0.2,3.4,0.6c1,0.4,2,0.9,2.8,1.6l-1.9,2.8c-0.8-0.5-1.5-0.9-2.2-1.2s-1.4-0.4-2.2-0.4c-0.7,0-1.3,0.1-1.6,0.4
					c-0.4,0.3-0.5,0.6-0.5,1v0c0,0.3,0.1,0.5,0.2,0.7s0.3,0.4,0.6,0.5c0.3,0.2,0.6,0.3,1.1,0.5c0.5,0.1,1.1,0.3,1.8,0.5
					c0.8,0.2,1.6,0.5,2.3,0.8s1.2,0.6,1.7,1c0.5,0.4,0.8,0.9,1,1.4c0.2,0.5,0.3,1.2,0.3,1.9v0c0,0.8-0.2,1.6-0.5,2.2
					c-0.3,0.6-0.7,1.2-1.3,1.6c-0.5,0.4-1.2,0.8-1.9,1C25.1,40.5,24.3,40.7,23.4,40.7z"/>
				<path class="st7" d="M41.2,40.7c-1.2,0-2.4-0.2-3.4-0.7c-1.1-0.4-2-1.1-2.7-1.8c-0.8-0.8-1.4-1.7-1.8-2.7
					c-0.4-1.1-0.6-2.2-0.6-3.4v0c0-1.2,0.2-2.3,0.6-3.4c0.4-1,1-2,1.8-2.8c0.8-0.8,1.7-1.4,2.8-1.9c1.1-0.5,2.3-0.7,3.6-0.7
					c0.8,0,1.5,0.1,2.1,0.2c0.6,0.1,1.2,0.3,1.8,0.5c0.5,0.2,1,0.5,1.5,0.8c0.4,0.3,0.9,0.7,1.2,1.1l-2.4,2.7
					c-0.7-0.6-1.3-1.1-2-1.4s-1.4-0.5-2.3-0.5c-0.7,0-1.4,0.1-2,0.4c-0.6,0.3-1.1,0.6-1.5,1.1c-0.4,0.5-0.8,1-1,1.7s-0.4,1.3-0.4,2
					v0c0,0.7,0.1,1.4,0.4,2c0.2,0.6,0.6,1.2,1,1.7c0.4,0.5,0.9,0.9,1.5,1.1c0.6,0.3,1.3,0.4,2,0.4c1,0,1.8-0.2,2.4-0.5
					c0.7-0.4,1.3-0.8,2-1.4l2.4,2.4c-0.4,0.5-0.9,0.9-1.3,1.2s-1,0.7-1.5,0.9c-0.6,0.3-1.2,0.5-1.8,0.6S42,40.7,41.2,40.7z"/>
				<path class="st7" d="M51.6,23.6h3.7v6.6h6.8v-6.6h3.7v16.8h-3.7v-6.7h-6.8v6.7h-3.7V23.6z"/>
				<path class="st7" d="M78.6,40.7c-1.3,0-2.5-0.2-3.6-0.7c-1.1-0.5-2-1.1-2.8-1.8c-0.8-0.8-1.4-1.7-1.8-2.7
					c-0.4-1-0.7-2.2-0.7-3.4v0c0-1.2,0.2-2.3,0.7-3.4c0.4-1,1.1-2,1.9-2.8s1.7-1.4,2.8-1.9s2.3-0.7,3.6-0.7s2.5,0.2,3.6,0.7
					s2,1.1,2.8,1.8s1.4,1.7,1.8,2.7c0.4,1,0.7,2.2,0.7,3.4v0c0,1.2-0.2,2.3-0.7,3.4c-0.4,1-1.1,2-1.9,2.8s-1.7,1.4-2.8,1.9
					C81.1,40.5,79.9,40.7,78.6,40.7z M78.6,37.3c0.7,0,1.4-0.1,2-0.4c0.6-0.3,1.2-0.6,1.6-1.1c0.4-0.5,0.8-1,1-1.7
					c0.2-0.6,0.4-1.3,0.4-2v0c0-0.7-0.1-1.4-0.4-2c-0.2-0.6-0.6-1.2-1.1-1.7c-0.5-0.5-1-0.9-1.6-1.1s-1.3-0.4-2-0.4
					c-0.8,0-1.4,0.1-2.1,0.4c-0.6,0.3-1.1,0.6-1.6,1.1c-0.4,0.5-0.8,1-1,1.7s-0.4,1.3-0.4,2v0c0,0.7,0.1,1.4,0.4,2
					c0.2,0.6,0.6,1.2,1.1,1.7c0.5,0.5,1,0.9,1.6,1.1C77.2,37.2,77.9,37.3,78.6,37.3z"/>
				<path class="st7" d="M91.4,23.6h3.7v13.4h8.4v3.4H91.4V23.6z"/>
				<path class="st7" d="M112.6,23.5h3.4l7.2,16.9h-3.9l-1.5-3.8h-7.1l-1.5,3.8h-3.8L112.6,23.5z M116.5,33.4l-2.2-5.4l-2.2,5.4
					H116.5z"/>
				<path class="st7" d="M126.4,23.6h7.7c2.1,0,3.8,0.6,4.9,1.7c1,1,1.4,2.2,1.4,3.8v0c0,1.4-0.3,2.5-1,3.3
					c-0.7,0.9-1.5,1.5-2.6,1.9l4.1,6h-4.3L133,35h-2.9v5.4h-3.7V23.6z M133.8,31.8c0.9,0,1.6-0.2,2.1-0.6c0.5-0.4,0.7-1,0.7-1.7v0
					c0-0.8-0.3-1.4-0.8-1.8c-0.5-0.4-1.2-0.6-2.1-0.6h-3.7v4.8H133.8z"/>
				<path class="st7" d="M150.3,40.7c-1.3,0-2.5-0.2-3.8-0.7c-1.2-0.4-2.4-1.1-3.4-2l2.2-2.6c0.8,0.6,1.6,1.1,2.4,1.5
					c0.8,0.4,1.7,0.6,2.7,0.6c0.8,0,1.4-0.1,1.8-0.4c0.4-0.3,0.6-0.7,0.6-1.2v0c0-0.2,0-0.5-0.1-0.6c-0.1-0.2-0.3-0.4-0.5-0.5
					s-0.6-0.3-1-0.5c-0.4-0.2-1-0.3-1.7-0.5c-0.8-0.2-1.6-0.4-2.3-0.7c-0.7-0.3-1.3-0.6-1.8-0.9c-0.5-0.4-0.9-0.8-1.1-1.4
					c-0.3-0.6-0.4-1.3-0.4-2.1v0c0-0.8,0.1-1.5,0.4-2.1s0.7-1.1,1.2-1.6c0.5-0.4,1.1-0.8,1.9-1c0.7-0.2,1.5-0.4,2.4-0.4
					c1.2,0,2.4,0.2,3.4,0.6c1,0.4,2,0.9,2.8,1.6l-1.9,2.8c-0.8-0.5-1.5-0.9-2.2-1.2s-1.4-0.4-2.2-0.4c-0.7,0-1.3,0.1-1.6,0.4
					c-0.4,0.3-0.5,0.6-0.5,1v0c0,0.3,0.1,0.5,0.2,0.7s0.3,0.4,0.6,0.5c0.3,0.2,0.6,0.3,1.1,0.5c0.5,0.1,1.1,0.3,1.8,0.5
					c0.8,0.2,1.6,0.5,2.3,0.8s1.2,0.6,1.7,1c0.5,0.4,0.8,0.9,1,1.4c0.2,0.5,0.3,1.2,0.3,1.9v0c0,0.8-0.2,1.6-0.5,2.2
					c-0.3,0.6-0.7,1.2-1.3,1.6c-0.5,0.4-1.2,0.8-1.9,1C152,40.5,151.2,40.7,150.3,40.7z"/>
				<path class="st7" d="M160.2,23.6h3.7v6.6h6.8v-6.6h3.7v16.8h-3.7v-6.7h-6.8v6.7h-3.7V23.6z"/>
				<path class="st7" d="M179.2,23.6h3.7v16.8h-3.7V23.6z"/>
				<path class="st7" d="M187.7,23.6h6.9c1,0,1.9,0.1,2.7,0.4s1.5,0.7,2,1.2c0.6,0.5,1,1.1,1.3,1.8c0.3,0.7,0.4,1.5,0.4,2.4v0
					c0,1-0.2,1.8-0.5,2.6c-0.4,0.7-0.8,1.4-1.5,1.8c-0.6,0.5-1.3,0.9-2.2,1.1s-1.7,0.4-2.7,0.4h-2.8v5h-3.7V23.6z M194.3,32.1
					c0.9,0,1.6-0.2,2.2-0.7c0.5-0.5,0.8-1.1,0.8-1.8v0c0-0.8-0.3-1.5-0.8-1.9s-1.3-0.6-2.2-0.6h-2.9v5.1H194.3z"/>
				<path class="st7" d="M210.3,40.7c-1.3,0-2.5-0.2-3.8-0.7c-1.2-0.4-2.4-1.1-3.4-2l2.2-2.6c0.8,0.6,1.6,1.1,2.4,1.5
					c0.8,0.4,1.7,0.6,2.7,0.6c0.8,0,1.4-0.1,1.8-0.4c0.4-0.3,0.6-0.7,0.6-1.2v0c0-0.2,0-0.5-0.1-0.6c-0.1-0.2-0.3-0.4-0.5-0.5
					s-0.6-0.3-1-0.5c-0.4-0.2-1-0.3-1.7-0.5c-0.8-0.2-1.6-0.4-2.3-0.7c-0.7-0.3-1.3-0.6-1.8-0.9c-0.5-0.4-0.9-0.8-1.1-1.4
					c-0.3-0.6-0.4-1.3-0.4-2.1v0c0-0.8,0.1-1.5,0.4-2.1s0.7-1.1,1.2-1.6c0.5-0.4,1.1-0.8,1.9-1c0.7-0.2,1.5-0.4,2.4-0.4
					c1.2,0,2.4,0.2,3.4,0.6c1,0.4,2,0.9,2.8,1.6l-1.9,2.8c-0.8-0.5-1.5-0.9-2.2-1.2s-1.4-0.4-2.2-0.4c-0.7,0-1.3,0.1-1.6,0.4
					c-0.4,0.3-0.5,0.6-0.5,1v0c0,0.3,0.1,0.5,0.2,0.7s0.3,0.4,0.6,0.5c0.3,0.2,0.6,0.3,1.1,0.5c0.5,0.1,1.1,0.3,1.8,0.5
					c0.8,0.2,1.6,0.5,2.3,0.8s1.2,0.6,1.7,1c0.5,0.4,0.8,0.9,1,1.4c0.2,0.5,0.3,1.2,0.3,1.9v0c0,0.8-0.2,1.6-0.5,2.2
					c-0.3,0.6-0.7,1.2-1.3,1.6c-0.5,0.4-1.2,0.8-1.9,1C212,40.5,211.2,40.7,210.3,40.7z"/>
			</g>
			<g>
				<path class="st2" d="M16.9,47.7h2.5l5.8,7.6v-7.6h2.7V60h-2.3l-6-7.8V60h-2.7V47.7z"/>
				<path class="st2" d="M32.2,47.7h9.3v2.4h-6.6v2.5h5.8V55h-5.8v2.6h6.7V60h-9.3V47.7z"/>
				<path class="st2" d="M49.8,47.7h2.5L57.5,60h-2.8l-1.1-2.8h-5.2L47.2,60h-2.8L49.8,47.7z M52.6,54.9l-1.6-4l-1.6,4H52.6z"/>
				<path class="st2" d="M60.7,47.7h5.6c1.6,0,2.8,0.4,3.6,1.2c0.7,0.7,1.1,1.6,1.1,2.8v0c0,1-0.2,1.8-0.7,2.4
					c-0.5,0.6-1.1,1.1-1.9,1.4l3,4.4h-3.2l-2.6-3.9h-2.1V60h-2.7V47.7z M66.2,53.7c0.7,0,1.2-0.2,1.5-0.5c0.4-0.3,0.5-0.7,0.5-1.3v0
					c0-0.6-0.2-1-0.6-1.3c-0.4-0.3-0.9-0.4-1.6-0.4h-2.7v3.5H66.2z"/>
				<path class="st2" d="M74.9,47.7h2.7v9.8h6.1V60h-8.8V47.7z"/>
				<path class="st2" d="M88.9,55.2l-4.7-7.4h3.2l2.9,4.9l3-4.9h3.1l-4.7,7.4V60h-2.7V55.2z"/>
			</g>
			<g>
				<path class="st2" d="M17,68.4h2.7v12.3H17V68.4z"/>
				<path class="st2" d="M26,68.4h2.5l5.8,7.6v-7.6h2.7v12.3h-2.3l-6-7.8v7.8H26V68.4z"/>
				<path class="st2" d="M54.6,68.3h2.5l5.3,12.4h-2.8l-1.1-2.8h-5.2l-1.1,2.8h-2.8L54.6,68.3z M57.4,75.5l-1.6-4l-1.6,4H57.4z"/>
				<path class="st2" d="M67.4,68.4h2.7v12.3h-2.7V68.4z"/>
				<path class="st2" d="M76.3,68.4h4.8c1,0,1.8,0.2,2.6,0.5c0.8,0.3,1.5,0.7,2.1,1.3c0.6,0.6,1,1.2,1.3,1.9
					c0.3,0.7,0.5,1.5,0.5,2.4v0c0,0.9-0.2,1.7-0.5,2.4c-0.3,0.8-0.8,1.4-1.3,2c-0.6,0.5-1.3,1-2.1,1.3c-0.8,0.3-1.7,0.5-2.6,0.5
					h-4.8V68.4z M79,70.8v7.4h2.1c0.5,0,1.1-0.1,1.5-0.3c0.5-0.2,0.8-0.4,1.2-0.8s0.6-0.7,0.8-1.2c0.2-0.4,0.3-0.9,0.3-1.5v0
					c0-0.5-0.1-1-0.3-1.5c-0.2-0.5-0.4-0.8-0.8-1.2s-0.7-0.6-1.2-0.8c-0.5-0.2-1-0.3-1.5-0.3H79z"/>
				<path class="st2" d="M104.8,68.3h2.5l5.3,12.4h-2.8l-1.1-2.8h-5.2l-1.1,2.8h-2.8L104.8,68.3z M107.7,75.5l-1.6-4l-1.6,4H107.7z"
					/>
				<path class="st2" d="M115.6,68.4h2.9l2.5,8.3l2.8-8.4h2.3l2.8,8.4l2.5-8.3h2.8l-4.2,12.4h-2.4l-2.8-8l-2.8,8h-2.4L115.6,68.4z"
					/>
				<path class="st2" d="M142.6,68.3h2.5l5.3,12.4h-2.8l-1.1-2.8h-5.2l-1.1,2.8h-2.8L142.6,68.3z M145.4,75.5l-1.6-4l-1.6,4H145.4z"
					/>
				<path class="st2" d="M155.3,68.4h5.6c1.6,0,2.8,0.4,3.6,1.2c0.7,0.7,1.1,1.6,1.1,2.8v0c0,1-0.2,1.8-0.7,2.4
					c-0.5,0.6-1.1,1.1-1.9,1.4l3,4.4h-3.2l-2.6-3.9H158v3.9h-2.7V68.4z M160.8,74.3c0.7,0,1.2-0.2,1.5-0.5c0.4-0.3,0.5-0.7,0.5-1.3
					v0c0-0.6-0.2-1-0.6-1.3c-0.4-0.3-0.9-0.4-1.6-0.4H158v3.5H160.8z"/>
				<path class="st2" d="M171.3,68.4h4.8c1,0,1.8,0.2,2.6,0.5c0.8,0.3,1.5,0.7,2.1,1.3c0.6,0.6,1,1.2,1.3,1.9
					c0.3,0.7,0.5,1.5,0.5,2.4v0c0,0.9-0.2,1.7-0.5,2.4c-0.3,0.8-0.8,1.4-1.3,2c-0.6,0.5-1.3,1-2.1,1.3c-0.8,0.3-1.7,0.5-2.6,0.5
					h-4.8V68.4z M174,70.8v7.4h2.1c0.5,0,1.1-0.1,1.5-0.3c0.5-0.2,0.8-0.4,1.2-0.8s0.6-0.7,0.8-1.2c0.2-0.4,0.3-0.9,0.3-1.5v0
					c0-0.5-0.1-1-0.3-1.5c-0.2-0.5-0.4-0.8-0.8-1.2s-0.7-0.6-1.2-0.8c-0.5-0.2-1-0.3-1.5-0.3H174z"/>
				<path class="st2" d="M188.2,68.4h9.3v2.4h-6.6v2.5h5.8v2.4h-5.8v2.6h6.7v2.4h-9.3V68.4z"/>
				<path class="st2" d="M203.2,68.4h4.8c1,0,1.8,0.2,2.6,0.5c0.8,0.3,1.5,0.7,2.1,1.3c0.6,0.6,1,1.2,1.3,1.9
					c0.3,0.7,0.5,1.5,0.5,2.4v0c0,0.9-0.2,1.7-0.5,2.4c-0.3,0.8-0.8,1.4-1.3,2c-0.6,0.5-1.3,1-2.1,1.3c-0.8,0.3-1.7,0.5-2.6,0.5
					h-4.8V68.4z M205.9,70.8v7.4h2.1c0.5,0,1.1-0.1,1.5-0.3c0.5-0.2,0.8-0.4,1.2-0.8s0.6-0.7,0.8-1.2c0.2-0.4,0.3-0.9,0.3-1.5v0
					c0-0.5-0.1-1-0.3-1.5c-0.2-0.5-0.4-0.8-0.8-1.2s-0.7-0.6-1.2-0.8c-0.5-0.2-1-0.3-1.5-0.3H205.9z"/>
			</g>
		</g>
		<text transform="matrix(1 0 0 1 216.0432 78.7969)" class="st7 st11 st14"> </text>
		<text transform="matrix(1 0 0 1 215.3801 78.7969)" class="st7 st11 st15"> </text>
	</g>
</g>
<g id="Body_Copy">
</g>
<g id="Business_1_">
</g>
<g id="Early_Education">
</g>
<g id="IT_Security">
</g>
<g id="Human_Services">
</g>
<g id="Video">
	<g id="Layer_15" class="st0">
	</g>
	<g id="Layer_14">
	</g>
</g>
<g id="NAVIGATION">
</g>
</svg>
